<?xml version="1.0" encoding="UTF-8"?>
<svg xmlns="http://www.w3.org/2000/svg" xmlns:xlink="http://www.w3.org/1999/xlink" version="1.1" id="Capa_1" x="0px" y="0px" viewBox="0 0 512 512" style="enable-background:new 0 0 512 512;" xml:space="preserve" width="512" height="512">
<g>
	<g>
		<path style="fill:#7C6C79;" d="M471.711,388.148l0.376,30.458c0,2.672-2.166,4.838-4.838,4.838L455.42,426H40.838&#10;&#9;&#9;&#9;c-2.672,0-4.838-2.166-4.838-4.838v-32.674L471.711,388.148z"/>
		<path style="fill:#6A5D67;" d="M476,396v25.16c0,2.67-2.17,4.84-4.84,4.84h-15.74v-30l10.29-4.688L476,396z"/>
		<polygon style="fill:#948393;" points="467.382,112.012 467.758,236.59 37.5,236.727 37.5,111.783 &#9;&#9;"/>
		<polygon style="fill:#7C6C79;" points="474.5,116 474.5,236.59 452.5,236.6 452.5,116 463.5,110.466 &#9;&#9;"/>
		<path style="fill:#7C6C79;" d="M470.958,113.666L452.5,116H36c-5.523,0-10-4.477-10-10V96c0-5.523,4.477-10,10-10h416.5&#10;&#9;&#9;&#9;l20.694,2.607c5.523,0,10,4.477,10,10l-2.235,5.059C480.958,109.188,476.481,113.666,470.958,113.666z"/>
		<path style="fill:#6A5D67;" d="M486,96v10c0,5.52-4.48,10-10,10h-23.5V86H476C481.52,86,486,90.48,486,96z"/>
		<g>
			<path style="fill:#F5F8F9;" d="M76,231.597v-54.885c0-6.883,4.684-12.883,11.362-14.552l0,0&#10;&#9;&#9;&#9;&#9;c41.532-10.383,84.831-11.197,126.641-2.442c3.557,0.745,4.979,3.642,8.512,4.525l0,0c6.678,1.669,11.362,7.669,11.362,14.552&#10;&#9;&#9;&#9;&#9;l-2.645,61.346L76,231.597z"/>
			<path style="fill:#E8EDF2;" d="M236,176.71v63.69l-22-1.21v-79.46c3.56,0.73,7.11,1.55,10.64,2.43c3.34,0.84,6.18,2.75,8.18,5.32&#10;&#9;&#9;&#9;&#9;C234.83,170.05,236,173.27,236,176.71z"/>
		</g>
		<path style="fill:#948393;" d="M486.958,330.494l1.318,57.654c0,2.761-2.239,5-5,5L455.42,396H26c-2.761,0-5-2.239-5-5v-60.676&#10;&#9;&#9;&#9;L486.958,330.494z"/>
		<path style="fill:#7C6C79;" d="M491,330.49V391c0,2.76-2.24,5-5,5h-30.58v-65.52L491,330.49z"/>
		<g>
			<path style="fill:#F5F8F9;" d="M276,231.597v-54.885c0-6.883,4.684-12.883,11.362-14.552l0,0&#10;&#9;&#9;&#9;&#9;c41.532-10.383,84.831-11.197,126.641-2.442c3.557,0.745,4.979,3.642,8.512,4.525l0,0c6.677,1.669,11.362,7.669,11.362,14.552&#10;&#9;&#9;&#9;&#9;l-2.645,61.346L276,231.597z"/>
			<path style="fill:#E8EDF2;" d="M436,176.71v63.69l-22-1.21v-79.46c3.56,0.73,7.11,1.55,10.64,2.43c3.34,0.84,6.18,2.75,8.18,5.32&#10;&#9;&#9;&#9;&#9;C434.83,170.05,436,173.27,436,176.71z"/>
		</g>
		<path style="fill:#F5F8F9;" d="M490.135,333.547L474.5,336h-457c-5.523,0-10-4.477-10-10v-59.776&#10;&#9;&#9;&#9;c0-17.248,12.882-31.779,30.006-33.846l0,0c3.331-0.402,6.662-0.796,9.994-1.178c0,0,3.643,2.888,5.977,2.63&#10;&#9;&#9;&#9;c135.962-15.015,273.844-16.829,409.799-1.235c0.258,0.03,1.224-1.395,1.224-1.395c0.327,0.038,0.654,0.074,0.981,0.112&#10;&#9;&#9;&#9;c3.005,0.348,6.521,3.308,9.525,3.671l0,0c17.124,2.067,24,21.434,24,38.682l1.129,49.882&#10;&#9;&#9;&#9;C500.135,329.07,495.658,333.547,490.135,333.547z"/>
		<path style="fill:#E8EDF2;" d="M504.5,266.22V326c0,5.52-4.48,10-10,10h-23c5.52,0,10-4.48,10-10v-65.78&#10;&#9;&#9;&#9;c0-8.62-3.22-16.56-8.58-22.61c-2.16-2.43-4.66-4.56-7.44-6.29c3,0.34,6.01,0.7,9.01,1.06c8.57,1.03,16.07,5.18,21.43,11.23&#10;&#9;&#9;&#9;C501.28,249.66,504.5,257.6,504.5,266.22z"/>
		<path style="fill:#C8E891;" d="M464.5,231.2V294c0,1.1-0.9,2-2,2h-413c-1.1,0-2-0.9-2-2v-62.8&#10;&#9;&#9;&#9;c69.28-7.97,138.89-11.96,208.5-11.96S395.22,223.23,464.5,231.2z"/>
	</g>
	<g>
		
			<line style="fill:none;stroke:#000000;stroke-width:15;stroke-linecap:round;stroke-linejoin:round;stroke-miterlimit:10;" x1="37.5" y1="232.277" x2="37.5" y2="116.234"/>
		
			<line style="fill:none;stroke:#000000;stroke-width:15;stroke-linecap:round;stroke-linejoin:round;stroke-miterlimit:10;" x1="474.5" y1="190.799" x2="474.5" y2="232.149"/>
		
			<line style="fill:none;stroke:#000000;stroke-width:15;stroke-linecap:round;stroke-linejoin:round;stroke-miterlimit:10;" x1="474.5" y1="116.447" x2="474.5" y2="155.799"/>
		<path style="fill:none;stroke:#000000;stroke-width:15;stroke-linecap:round;stroke-linejoin:round;stroke-miterlimit:10;" d="&#10;&#9;&#9;&#9;M476,116H36c-5.523,0-10-4.477-10-10V96c0-5.523,4.477-10,10-10h440c5.523,0,10,4.477,10,10v10C486,111.523,481.523,116,476,116z"/>
		<path style="fill:none;stroke:#000000;stroke-width:15;stroke-linecap:round;stroke-linejoin:round;stroke-miterlimit:10;" d="&#10;&#9;&#9;&#9;M152.085,396H26c-2.761,0-5-2.239-5-5v-54.894"/>
		<path style="fill:none;stroke:#000000;stroke-width:15;stroke-linecap:round;stroke-linejoin:round;stroke-miterlimit:10;" d="&#10;&#9;&#9;&#9;M491,336.277V391c0,2.761-2.239,5-5,5H187.085"/>
		<path style="fill:none;stroke:#000000;stroke-width:15;stroke-linecap:round;stroke-linejoin:round;stroke-miterlimit:10;" d="&#10;&#9;&#9;&#9;M476,396.277v24.886c0,2.672-2.166,4.838-4.838,4.838H40.838c-2.672,0-4.838-2.166-4.838-4.838v-24.545"/>
		<path style="fill:none;stroke:#000000;stroke-width:15;stroke-linecap:round;stroke-linejoin:round;stroke-miterlimit:10;" d="&#10;&#9;&#9;&#9;M156.574,153.71c22.861,0.046,45.718,2.863,68.063,8.449l0,0c6.678,1.669,11.362,7.669,11.362,14.552v42.525"/>
		<path style="fill:none;stroke:#000000;stroke-width:15;stroke-linecap:round;stroke-linejoin:round;stroke-miterlimit:10;" d="&#10;&#9;&#9;&#9;M76,228.043v-51.331c0-6.883,4.684-12.883,11.362-14.552l0,0c11.328-2.832,22.788-4.952,34.312-6.36"/>
		<path style="fill:none;stroke:#000000;stroke-width:15;stroke-linecap:round;stroke-linejoin:round;stroke-miterlimit:10;" d="&#10;&#9;&#9;&#9;M276,219.236v-42.525c0-6.883,4.684-12.883,11.362-14.552l0,0c45.065-11.266,92.211-11.266,137.276,0l0,0&#10;&#9;&#9;&#9;c6.678,1.669,11.362,7.669,11.362,14.552v51.331"/>
		<path style="fill:none;stroke:#000000;stroke-width:15;stroke-linecap:round;stroke-linejoin:round;stroke-miterlimit:10;" d="&#10;&#9;&#9;&#9;M494.5,336h-477c-5.523,0-10-4.477-10-10v-59.776c0-17.248,12.882-31.779,30.006-33.846l0,0&#10;&#9;&#9;&#9;c145.136-17.521,291.852-17.521,436.988,0l0,0c17.124,2.067,30.006,16.598,30.006,33.846V326C504.5,331.523,500.023,336,494.5,336&#10;&#9;&#9;&#9;z"/>
		
			<polyline style="fill:none;stroke:#000000;stroke-width:15;stroke-linecap:round;stroke-linejoin:round;stroke-miterlimit:10;" points="&#10;&#9;&#9;&#9;265.149,296 47.5,296 47.5,232 &#9;&#9;"/>
		
			<polyline style="fill:none;stroke:#000000;stroke-width:15;stroke-linecap:round;stroke-linejoin:round;stroke-miterlimit:10;" points="&#10;&#9;&#9;&#9;464.5,232 464.5,296 300.149,296 &#9;&#9;"/>
		
			<line style="fill:none;stroke:#000000;stroke-width:15;stroke-linecap:round;stroke-linejoin:round;stroke-miterlimit:10;" x1="51" y1="366" x2="461" y2="366"/>
	</g>
</g>















</svg>
