<svg height="512" viewBox="0 0 64 64" width="512" xmlns="http://www.w3.org/2000/svg"><g id="Layer_31" data-name="Layer 31"><path d="m50 33h-13a4.867 4.867 0 0 0 -5 4.722v18.278h23v-18.278a4.867 4.867 0 0 0 -5-4.722z" fill="#2662bb"/><path d="m27 33h-13a4.867 4.867 0 0 0 -5 4.722v18.278h23v-18.278a4.867 4.867 0 0 0 -5-4.722z" fill="#2662bb"/><path d="m11 46h10a9 9 0 0 0 9-9v-3.034a5.145 5.145 0 0 0 -3-.966h-13a4.867 4.867 0 0 0 -5 4.722v8.047a8.971 8.971 0 0 0 2 .231z" fill="#2f78e6"/><path d="m34 46h10a9 9 0 0 0 9-9v-3.034a5.145 5.145 0 0 0 -3-.966h-13a4.867 4.867 0 0 0 -5 4.722v8.047a8.971 8.971 0 0 0 2 .231z" fill="#2f78e6"/><path d="m14 2h36v23h-36z" fill="#cbccca"/><path d="m14 22.816a2.962 2.962 0 0 0 1 .184h30a3 3 0 0 0 3-3v-17a2.962 2.962 0 0 0 -.184-1h-33.816z" fill="#e0dee0"/><rect fill="#ecebec" height="16" rx="3" width="29" x="16" y="4"/><path d="m18 6h28v15h-28z" fill="#bce4f8"/><path d="m18 20h22.846a4.233 4.233 0 0 0 4.154-4.308v-9.692h-27z" fill="#e3f4fc"/><path d="m52 48v8h-20v-3.556a4.747 4.747 0 0 1 5-4.444z" fill="#5993eb"/><path d="m12 48v8h20v-3.556a4.747 4.747 0 0 0 -5-4.444z" fill="#5993eb"/><path d="m12 62h-10v-16a5 5 0 0 1 5-5 5 5 0 0 1 5 5z" fill="#82aef0"/><path d="m62 62h-10v-16.227a4.891 4.891 0 0 1 5-4.773 4.891 4.891 0 0 1 5 4.773z" fill="#82aef0"/><path d="m56 41.1a4.836 4.836 0 0 0 -4 4.677v16.223h8v-16.227a4.836 4.836 0 0 0 -4-4.673z" fill="#9bbef3"/><path d="m6 41.1a4.836 4.836 0 0 0 -4 4.677v16.223h8v-16.227a4.836 4.836 0 0 0 -4-4.673z" fill="#9bbef3"/><path d="m32 21-2.891-4.336a3.736 3.736 0 0 0 -3.109-1.664 3.736 3.736 0 0 0 -3.109 1.664l-2.891 4.336z" fill="#539a36"/><path d="m44 21-2.891-4.336a3.736 3.736 0 0 0 -3.109-1.664 3.736 3.736 0 0 0 -3.109 1.664l-2.891 4.336z" fill="#539a36"/><circle cx="32" cy="11" fill="#f3a744" r="2"/><path d="m12 56h40v6h-40z" fill="#82aef0"/><path d="m12 56h40v6h-40z" fill="#82aef0"/><path d="m27 54a3 3 0 0 0 3-3v-2.091a5.364 5.364 0 0 0 -3-.909h-15v6z" fill="#7aa9ef"/><path d="m37 48a4.747 4.747 0 0 0 -5 4.444v1.556h15a3 3 0 0 0 3-3v-3z" fill="#7aa9ef"/><path d="m21 20h7a2 2 0 0 0 2-2l-.891-1.336a3.736 3.736 0 0 0 -6.218 0l-2.2 3.305a2 2 0 0 0 .309.031z" fill="#69c147"/><path d="m33 20h7a2 2 0 0 0 2-2l-.891-1.336a3.736 3.736 0 0 0 -6.218 0l-2.2 3.305a2 2 0 0 0 .309.031z" fill="#69c147"/><rect fill="#87cd6c" height="1" rx=".5" width="3" x="26" y="18"/><rect fill="#87cd6c" height="1" rx=".5" width="3" x="38" y="18"/><path d="m32 9a1.988 1.988 0 0 0 -1.723 3h.723a2 2 0 0 0 2-2v-.723a1.987 1.987 0 0 0 -1-.277z" fill="#edcb61"/><path d="m46 5h-28a1 1 0 0 0 -1 1v15a1 1 0 0 0 1 1h28a1 1 0 0 0 1-1v-15a1 1 0 0 0 -1-1zm-24.132 15 1.855-2.781a2.736 2.736 0 0 1 4.554 0l1.855 2.781zm12 0 1.855-2.781a2.736 2.736 0 0 1 4.554 0l1.855 2.781zm11.132 0h-.465l-2.594-3.891a4.737 4.737 0 0 0 -7.882 0l-2.059 3.091-2.059-3.088a4.737 4.737 0 0 0 -7.882 0l-2.594 3.888h-.465v-13h26z"/><path d="m57 40a6.218 6.218 0 0 0 -1 .087v-2.364a5.872 5.872 0 0 0 -6-5.723h-13a6.079 6.079 0 0 0 -5 2.566 6.079 6.079 0 0 0 -5-2.566h-13a5.872 5.872 0 0 0 -6 5.723v2.367a5.967 5.967 0 0 0 -7 5.91v16a1 1 0 0 0 1 1h60a1 1 0 0 0 1-1v-16.228a5.9 5.9 0 0 0 -6-5.772zm-44 9h14a3.757 3.757 0 0 1 4 3.444v2.556h-18zm0 8h38v4h-38zm20-2v-2.556a3.757 3.757 0 0 1 4-3.444h14v6zm-22 6h-8v-15a4 4 0 0 1 8 0zm-1-20.188v-3.089a3.873 3.873 0 0 1 4-3.723h13a3.873 3.873 0 0 1 4 3.723v10.677a6.321 6.321 0 0 0 -4-1.4h-14v-1a6 6 0 0 0 -3-5.188zm41 4.96v1.228h-14a6.321 6.321 0 0 0 -4 1.4v-10.677a3.873 3.873 0 0 1 4-3.723h13a3.873 3.873 0 0 1 4 3.723v3.058a5.738 5.738 0 0 0 -3 4.991zm10 15.228h-8v-15.228a4.007 4.007 0 0 1 8 0z"/><path d="m32 14a3 3 0 1 0 -3-3 3 3 0 0 0 3 3zm0-4a1 1 0 1 1 -1 1 1 1 0 0 1 1-1z"/><path d="m14 26h36a1 1 0 0 0 1-1v-23a1 1 0 0 0 -1-1h-36a1 1 0 0 0 -1 1v23a1 1 0 0 0 1 1zm1-23h34v21h-34z"/></g></svg>