<?xml version="1.0" encoding="UTF-8"?>
<svg width="63px" height="63px" viewBox="0 0 63 63" version="1.1" xmlns="http://www.w3.org/2000/svg" xmlns:xlink="http://www.w3.org/1999/xlink">
    <!-- Generator: Sketch 51 (57462) - http://www.bohemiancoding.com/sketch -->
    <title>outside-icon</title>
    <desc>Created with Sketch.</desc>
    <defs>
        <circle id="path-1" cx="31.1982545" cy="31.4181818" r="30.8363636"></circle>
    </defs>
    <g id="Home" stroke="none" stroke-width="1" fill="none" fill-rule="evenodd">
        <g id="Home-Screen" transform="translate(-343.000000, -445.000000)">
            <g id="Group-3" transform="translate(343.000000, 443.000000)">
                <g id="outside-icon" transform="translate(0.000000, 2.000000)">
                    <g id="Group">
                        <g id="thermometercold-a-link" fill="#2C87BF" fill-rule="nonzero">
                            <circle id="thermometercold-a" cx="31.1982545" cy="31.4181818" r="30.8363636"></circle>
                        </g>
                        <g id="Clipped">
                            <mask id="mask-2" fill="white">
                                <use xlink:href="#path-1"></use>
                            </mask>
                            <g id="thermometercold-a"></g>
                            <path d="M49.4276639,23.2787741 C49.4276639,23.2787741 42.6459677,20.5111089 40.6259692,21.8949416 C38.6059707,23.2787741 39.6850852,29.8130301 39.6850852,29.8130301 C39.6850852,29.8130301 36.674562,34.1276461 38.1798236,36.3969268 C39.6850852,38.6662074 43.8663675,37.8861506 46.2155227,39.8878202 C48.5646778,41.8894898 47.5886634,45.4819558 47.5886634,45.4819558 L47.0204672,49.6762211 C47.0204672,49.6762211 53.3126288,46.8566241 55.1256634,42.7944796 C56.9386979,38.7323352 56.3514092,32.3638032 56.3514092,32.3638032 L60.0240642,29.0340515 L63.2536717,18.5605955 L51.9203955,14.8953537 L50.6717386,9.30909091 L42.5673061,11.6063141 L41.8349135,17.6991488 L48.0596361,19.7601128 L49.4276639,23.2787741 Z M-1.16363636,26.8105381 C-1.16363636,26.8105381 1.1286589,25.3490292 1.43461318,25.325772 C3.78185869,25.1473455 11.9612109,25.6463357 14.0998032,22.545893 C16.5171527,19.0413198 18.5322185,14.4006506 18.5322185,14.4006506 L18.4512512,10.8300634 L5.8115914,7.72813859 L-1.16363636,26.8105381 Z M18.7069047,55.9714914 L19.7777512,44.1451299 L11.1747507,37.5591414 C11.1747507,37.5591414 10.677908,32.2886566 16.9223173,31.5438632 C23.1667264,30.7990697 27.0139638,34.6613629 27.0139638,34.6613629 C27.0139638,34.6613629 29.4930018,38.4977062 28.5684792,41.1038504 C27.6439566,43.7099946 25.2519601,47.6126778 25.2519601,47.6126778 C25.2519601,47.6126778 25.0622198,52.0463419 23.441025,54.1168002 C21.8198302,56.1872585 18.7069047,55.9714914 18.7069047,55.9714914 Z" id="Shape" fill="#22BA8E" fill-rule="nonzero" mask="url(#mask-2)"></path>
                        </g>
                    </g>
                </g>
            </g>
        </g>
    </g>
</svg>