<?xml version="1.0" encoding="UTF-8"?>
<svg width="136px" height="115px" viewBox="0 0 136 115" version="1.1" xmlns="http://www.w3.org/2000/svg" xmlns:xlink="http://www.w3.org/1999/xlink">
    <!-- Generator: Sketch 51 (57462) - http://www.bohemiancoding.com/sketch -->
    <title>weather-icon-rainy</title>
    <desc>Created with Sketch.</desc>
    <defs>
        <filter x="-9.2%" y="-11.1%" width="122.5%" height="126.8%" filterUnits="objectBoundingBox" id="filter-1">
            <feOffset dx="2" dy="2" in="SourceAlpha" result="shadowOffsetOuter1"></feOffset>
            <feGaussianBlur stdDeviation="4" in="shadowOffsetOuter1" result="shadowBlurOuter1"></feGaussianBlur>
            <feColorMatrix values="0 0 0 0 0   0 0 0 0 0   0 0 0 0 0  0 0 0 0.5 0" type="matrix" in="shadowBlurOuter1" result="shadowMatrixOuter1"></feColorMatrix>
            <feMerge>
                <feMergeNode in="shadowMatrixOuter1"></feMergeNode>
                <feMergeNode in="SourceGraphic"></feMergeNode>
            </feMerge>
        </filter>
        <linearGradient x1="49.9999556%" y1="125.645666%" x2="49.9999556%" y2="49.165871%" id="linearGradient-2">
            <stop stop-color="#D2D0CF" offset="0%"></stop>
            <stop stop-color="#FFFFFF" offset="100%"></stop>
        </linearGradient>
        <linearGradient x1="50.0006207%" y1="358.172153%" x2="50.0006207%" y2="139.058929%" id="linearGradient-3">
            <stop stop-color="#D2D0CF" offset="0%"></stop>
            <stop stop-color="#FFFFFF" offset="100%"></stop>
        </linearGradient>
        <linearGradient x1="50.0004262%" y1="134.092968%" x2="50.0004262%" y2="49.0730824%" id="linearGradient-4">
            <stop stop-color="#D2D0CF" offset="0%"></stop>
            <stop stop-color="#FFFFFF" offset="100%"></stop>
        </linearGradient>
        <linearGradient x1="89.510477%" y1="-31.8669321%" x2="66.4916879%" y2="28.8479115%" id="linearGradient-5">
            <stop stop-color="#D2D0CF" offset="0%"></stop>
            <stop stop-color="#FFFFFF" offset="100%"></stop>
        </linearGradient>
        <linearGradient x1="50.0001663%" y1="232.359864%" x2="50.0001663%" y2="84.5291205%" id="linearGradient-6">
            <stop stop-color="#D2D0CF" offset="0%"></stop>
            <stop stop-color="#FFFFFF" offset="100%"></stop>
        </linearGradient>
        <linearGradient x1="-204.261522%" y1="50.0001393%" x2="333.434886%" y2="50.0001393%" id="linearGradient-7">
            <stop stop-color="#D2D0CF" offset="0%"></stop>
            <stop stop-color="#FFFFFF" offset="100%"></stop>
        </linearGradient>
        <linearGradient x1="35.9711646%" y1="54.3326074%" x2="108.413261%" y2="114.186837%" id="linearGradient-8">
            <stop stop-color="#F0F0F0" offset="0%"></stop>
            <stop stop-color="#FFFFFF" offset="100%"></stop>
        </linearGradient>
    </defs>
    <g id="Symbols" stroke="none" stroke-width="1" fill="none" fill-rule="evenodd">
        <g id="Rainy-day-min-max-weather" transform="translate(6.000000, -111.000000)" fill-rule="nonzero">
            <g id="weather-icon-rainy" filter="url(#filter-1)" transform="translate(0.000000, 117.000000)">
                <g id="Group" fill="#FFFFFF">
                    <path d="M111.082266,47.2059375 L102.355078,47.2059375 C102.352969,47.206875 102.350859,47.2078125 102.34875,47.20875 L98.6160938,47.20875 C100.347656,44.2846875 101.344219,40.9033594 101.376797,37.2607031 C101.376797,36.3623438 101.327813,35.4475781 101.213438,34.5164063 C100.118906,25.6790625 93.0946875,18.5078906 84.27375,17.2828125 C83.2282031,17.1358594 82.1990625,17.0704687 81.1863281,17.0704687 C80.1407813,17.0866406 79.0954688,17.1848437 78.0827344,17.3482031 C76.498125,17.6259375 74.9627344,18.0670312 73.5250781,18.67125 C70.6174219,9.2784375 62.6294531,2.12367188 52.7629688,0.392109375 L52.7629688,0.408515625 C51.2763281,0.146953125 49.7245312,0 48.1563281,0 C33.4872656,0 21.5789062,11.8919531 21.5789062,26.5610156 C21.5789062,27.3124219 21.6278906,28.0638281 21.676875,28.8152344 C19.978125,28.3415625 18.1157812,28.2107813 16.2046875,28.4885156 C10.3075781,29.386875 5.66835938,34.3202344 5.12929687,40.2499219 C4.88414062,42.89625 5.42320312,45.3953906 6.53414062,47.5354687 C2.77710938,48.5810156 0,52.0441406 0,56.1278906 C0,56.6669531 0.048984375,57.1896094 0.146953125,57.6960938 C0.261328125,58.333125 0.440859375,58.95375 0.686015625,59.525625 C1.584375,61.7144531 3.33234375,63.4624219 5.52117187,64.3607813 C6.09304687,64.6059375 6.71367188,64.7854688 7.35070312,64.8998438 C7.8571875,64.9978125 8.37984375,65.0467969 8.91890625,65.0467969 L30.3998438,65.0467969 L30.4054688,65.0411719 L111.082266,65.0411719 C115.987031,65.0411719 120,61.0282031 120,56.1234375 C120,51.2186719 115.987031,47.2059375 111.082266,47.2059375 Z M87.06375,21.3384375 C87.1253906,21.3607031 87.1863281,21.3832031 87.2477344,21.4064063 C87.1865625,21.3832031 87.1251563,21.3609375 87.06375,21.3384375 Z M89.2717969,22.3305469 C89.3428125,22.3689844 89.41125,22.4104687 89.4815625,22.4500781 C89.41125,22.4104687 89.3425781,22.3689844 89.2717969,22.3305469 Z M91.35375,23.6603906 C91.3832812,23.6826562 91.4104688,23.7072656 91.44,23.7297656 C91.4104687,23.7072656 91.3832812,23.6824219 91.35375,23.6603906 Z M93.0679687,50.1876562 L93.0726562,50.1794531 C94.3066406,49.963125 95.5115625,49.6647656 96.7000781,49.3260937 C95.5103906,49.666875 94.3040625,49.9678125 93.0679687,50.1876562 Z M95.3615625,46.2944531 L95.8014844,45.5475 C95.9932031,45.2224219 96.1647656,44.889375 96.3328125,44.5551562 C96.1659375,44.8877344 95.9960156,45.2191406 95.8061719,45.5428125 L95.3615625,46.2944531 Z M97.9788281,34.9246875 C98.1349219,36.2071875 98.1391406,37.4765625 98.0170313,38.7220312 C98.1386719,37.4753906 98.1328125,36.2055469 97.974375,34.9249219 C97.9195313,34.4791406 97.8442969,34.0382812 97.7526563,33.6028125 C97.7561719,33.6192187 97.7632031,33.6342187 97.7664844,33.650625 C97.8482812,34.0589062 97.9298438,34.5 97.9788281,34.9246875 Z M96.4575,44.3219531 C96.4664063,44.3034375 96.4729688,44.2839844 96.481875,44.2654687 C96.4732031,44.2839844 96.4664063,44.3034375 96.4575,44.3219531 Z M95.9960156,28.9715625 C96.0475781,29.0634375 96.0975,29.1555469 96.1471875,29.2483594 C96.0975,29.1555469 96.0473438,29.0632031 95.9960156,28.9715625 Z M97.0432031,31.2049219 C97.078125,31.2967969 97.1071875,31.3903125 97.1402344,31.4828906 C97.1071875,31.3903125 97.0778906,31.2965625 97.0432031,31.2049219 Z M94.83,27.1654687 C94.7758594,27.0925781 94.7184375,27.0222656 94.663125,26.9500781 C94.7186719,27.0222656 94.7758594,27.0923437 94.83,27.1654687 Z M93.2149219,25.2796875 C93.1889063,25.2536719 93.1607812,25.23 93.1347656,25.2042187 C93.1607812,25.23 93.1889063,25.2534375 93.2149219,25.2796875 Z M81.3822656,20.3374219 C82.1374219,20.3374219 82.9202344,20.3995312 83.6786719,20.5019531 C82.9136719,20.4007031 82.1416406,20.3402344 81.380625,20.3402344 C79.8023437,20.3402344 78.260625,20.5708594 76.7690625,20.9988281 C78.2580469,20.5710937 79.7988281,20.3374219 81.3822656,20.3374219 Z M72.9696094,22.4610937 L74.8155469,21.6771094 C75.2111719,21.5088281 75.6157031,21.3705469 76.0204687,21.2334375 C75.6142969,21.3710156 75.2083594,21.51 74.8113281,21.6796875 L72.9733594,22.4657812 L71.4803906,23.1042188 L70.9492969,21.3921094 L71.4829687,23.098125 L72.9696094,22.4610937 Z M51.4359375,3.49992187 C51.1560938,3.46054687 50.8727344,3.433125 50.5903125,3.403125 C50.6547656,3.40992187 50.7217969,3.406875 50.78625,3.41414062 C51.0070312,3.43851562 51.2200781,3.46851562 51.4359375,3.49992187 Z M20.6360156,31.9202344 C20.3491406,31.8475781 20.0596875,31.790625 19.7685938,31.7439844 C19.9038281,31.7653125 20.0390625,31.7777344 20.1742969,31.8046875 C20.3242969,31.839375 20.4808594,31.8796875 20.6360156,31.9202344 Z M19.3633594,31.6830469 C19.0380469,31.644375 18.7115625,31.6230469 18.3848438,31.6171875 C18.7110937,31.6228125 19.0373438,31.6448437 19.3633594,31.6830469 Z M16.4439844,31.7807813 C16.0202344,31.8569531 15.6025781,31.951875 15.19875,32.0819531 C15.6025781,31.9521094 16.02,31.8571875 16.4439844,31.7807813 Z M12.0086719,33.8341406 C11.690625,34.0935938 11.3803125,34.3626563 11.09625,34.6586719 C11.2617188,34.4810156 11.4365625,34.3033594 11.6144531,34.1404688 C11.7386719,34.029375 11.8792969,33.9391406 12.0086719,33.8341406 Z M14.6453906,32.2999219 C14.3482031,32.4166406 14.0519531,32.5345313 13.7690625,32.6789063 C14.0524219,32.5347656 14.3477344,32.4164063 14.6453906,32.2999219 Z M13.2473438,32.9775 C12.9710156,33.140625 12.699375,33.3100781 12.440625,33.4985156 C12.7003125,33.3103125 12.9703125,33.1401562 13.2473438,32.9775 Z M9.36234375,37.1432813 C9.53390625,36.7985156 9.721875,36.463125 9.93,36.1382812 C9.72023438,36.4607812 9.53414063,36.7978125 9.36234375,37.1432813 Z M10.9699219,34.7939062 C10.6863281,35.1007031 10.4299219,35.4316406 10.1861719,35.7714844 C10.2928125,35.6205469 10.3884375,35.4616406 10.5035156,35.3170312 C10.6591406,35.1330469 10.8145313,34.9638281 10.9699219,34.7939062 Z M6.29085938,51.1441406 C6.13734375,51.2254687 5.9840625,51.3072656 5.83992187,51.4014844 C5.93554688,51.3384375 6.02601563,51.2683594 6.12585938,51.2109375 C6.17578125,51.18375 6.23929687,51.1701562 6.29085938,51.1441406 Z M5.66484375,51.5179687 C5.4834375,51.6464062 5.31304687,51.7877344 5.14875,51.9353906 C5.3128125,51.7870312 5.48367187,51.6473437 5.66484375,51.5179687 Z M4.99476563,52.0699219 C4.79882812,52.2595312 4.61671875,52.4622656 4.45007813,52.6774219 C4.61601563,52.4617969 4.7990625,52.26 4.99476563,52.0699219 Z M3.29109375,55.7730469 C3.3009375,55.6190625 3.3075,55.4650781 3.32976562,55.3141406 C3.30773437,55.4648437 3.3009375,55.6192969 3.29109375,55.7730469 Z M3.41671875,54.8917969 C3.44695312,54.7579687 3.478125,54.6253125 3.51796875,54.495 C3.478125,54.6250781 3.4471875,54.7582031 3.41671875,54.8917969 Z M3.65648437,54.0982031 C3.70828125,53.9648437 3.76617187,53.8354687 3.82757812,53.7067969 C3.7659375,53.8352344 3.70828125,53.9650781 3.65648437,54.0982031 Z M4.003125,53.3580469 C4.09054688,53.2033594 4.1896875,53.056875 4.29117187,52.9110937 C4.1896875,53.0566406 4.09078125,53.2035937 4.003125,53.3580469 Z M5.04117187,60.2186719 C5.51085937,60.6628125 6.05132812,61.03125 6.65109375,61.2946875 C6.33773438,61.1578125 6.03351563,61.0035937 5.74992188,60.8160938 C5.49984375,60.6353906 5.26125,60.4328906 5.04117187,60.2186719 Z M6.83320313,61.3661719 C7.09664063,61.4709375 7.36992188,61.5560156 7.65117188,61.6207031 C7.36992188,61.5555469 7.09734375,61.4711719 6.83320313,61.3661719 Z M7.85226563,61.6671094 C8.19679688,61.7329688 8.55023438,61.7744531 8.91375,61.7744531 L33.6646875,61.7744531 L33.6590625,61.7800781 L8.91914063,61.7800781 C8.551875,61.7798437 8.1984375,61.7336719 7.85226563,61.6671094 Z" id="Shape"></path>
                    <path d="M18.8833594,73.4027344 C18.8833594,73.4027344 13.5878906,75.4167188 11.9845313,79.1985938 C11.2870313,80.8436719 11.8788281,82.486875 13.0230469,83.5319531 C13.3853906,83.8628906 13.8007031,84.1371094 14.2511719,84.328125 C16.125,85.1226562 18.5955469,84.5573438 19.5140625,82.39125 C20.2816406,80.5809375 20.1672656,78.4488281 19.8421875,76.7128125 C19.4880469,74.8221094 18.8833594,73.4027344 18.8833594,73.4027344 Z" id="Shape"></path>
                    <path d="M36.6597656,88.104375 C36.6597656,88.104375 31.3642969,90.1183594 29.7609375,93.9002344 C29.0634375,95.5453125 29.6552344,97.1885156 30.7994531,98.2335937 C31.1617969,98.5645312 31.5771094,98.83875 32.0275781,99.0297656 C33.9014063,99.8242969 36.3719531,99.2589844 37.2904688,97.0928906 C38.0580469,95.2825781 37.9436719,93.1502344 37.6185938,91.4144531 C37.2644531,89.52375 36.6597656,88.104375 36.6597656,88.104375 Z" id="Shape"></path>
                    <path d="M49.3889062,71.55375 C49.3889062,71.55375 44.0934375,73.5677344 42.4900781,77.3496094 C41.7925781,78.9946875 42.384375,80.6378906 43.5285937,81.6829688 C43.8909375,82.0139062 44.30625,82.288125 44.7567187,82.4791406 C46.6305469,83.2736719 49.1010937,82.7083594 50.0196094,80.5422656 C50.7871875,78.7319531 50.6728125,76.5996094 50.3477344,74.8638281 C49.9935937,72.973125 49.3889062,71.55375 49.3889062,71.55375 Z" id="Shape"></path>
                    <path d="M65.4590625,88.104375 C65.4590625,88.104375 60.1635937,90.1183594 58.5602344,93.9002344 C57.8627344,95.5453125 58.4545312,97.1885156 59.59875,98.2335937 C59.9610937,98.5645312 60.3764062,98.83875 60.8271094,99.0297656 C62.7009375,99.8242969 65.1714844,99.2589844 66.09,97.0928906 C66.8575781,95.2825781 66.7432031,93.1502344 66.418125,91.4144531 C66.06375,89.52375 65.4590625,88.104375 65.4590625,88.104375 Z" id="Shape"></path>
                    <path d="M79.61625,72.8582813 C79.61625,72.8582813 74.3207813,74.8722656 72.7174219,78.6541406 C72.0199219,80.2992188 72.6117188,81.9424219 73.7559375,82.9875 C74.1182813,83.3184375 74.5335938,83.5926562 74.9840625,83.7836719 C76.8578906,84.5782031 79.3284375,84.0128906 80.2469531,81.8467969 C81.0145313,80.0364844 80.9001563,77.904375 80.5750781,76.1683594 C80.2209375,74.2776563 79.61625,72.8582813 79.61625,72.8582813 Z" id="Shape"></path>
                </g>
                <g id="Group">
                    <path d="M52.7629688,0.40828125 C52.3546875,1.43742188 51.97875,2.4665625 51.6520313,3.52828125 C51.3578906,3.47929688 51.0803906,3.44671875 50.78625,3.41390625 C49.9204688,3.3159375 49.0546875,3.26695312 48.1563281,3.26695312 C35.3003906,3.26695312 24.8622656,13.7053125 24.8622656,26.5610156 C24.8622656,27.230625 24.8786719,27.8842969 24.9438281,28.5375 L25.3359375,33.193125 L20.8275,31.9680469 C20.6151563,31.9026562 20.3864063,31.8536719 20.1740625,31.8046875 C19.520625,31.6741406 18.8671875,31.60875 18.21375,31.60875 C17.7072656,31.60875 17.2010156,31.6415625 16.6945313,31.723125 C14.7670313,32.0172656 13.0190625,32.8830469 11.6142188,34.1407031 C11.4180469,34.3204687 11.2221094,34.5164062 11.0423438,34.7125781 C10.8625781,34.9085156 10.6830469,35.1046875 10.5032813,35.3170312 C9.99679688,35.9540625 9.57234375,36.6564844 9.22921875,37.3917187 C8.77171875,38.371875 8.4778125,39.4335938 8.37984375,40.5445312 C8.20007813,42.455625 8.57578125,44.3505469 9.4415625,46.0167187 L11.3039063,49.5942187 L11.3039063,49.610625 L7.41609375,50.68875 C6.95859375,50.8195312 6.5175,50.9990625 6.125625,51.2114062 C4.3940625,52.2077344 3.26695313,54.0700781 3.26695313,56.1283594 C3.26695313,57.6801562 3.90398438,59.085 4.91695313,60.1141406 C5.16210938,60.3754687 5.45601563,60.6042187 5.75015625,60.8165625 C6.66492188,61.4210156 7.74304688,61.7803125 8.91914063,61.7803125 L33.6670313,61.7803125 L30.4000781,65.0472656 L8.91914063,65.0472656 C8.38007813,65.0472656 7.85742188,64.9982813 7.3509375,64.9003125 C6.71390625,64.7859375 6.09328125,64.6061719 5.52140625,64.36125 C3.33257813,63.4628906 1.58460938,61.7149219 0.68625,59.5260938 C0.44109375,58.9542188 0.2615625,58.3335938 0.1471875,57.6965625 C0.048984375,57.1898438 0,56.6669531 0,56.1278906 C0,52.0441406 2.77710938,48.5810156 6.53414063,47.5354687 C5.4234375,45.395625 4.884375,42.89625 5.12929688,40.2499219 C5.66835938,34.3202344 10.3075781,29.386875 16.2046875,28.4885156 C18.1157813,28.2107813 19.978125,28.3415625 21.676875,28.8152344 C21.6278906,28.0638281 21.5789063,27.3124219 21.5789063,26.5610156 C21.5789063,11.8919531 33.4872656,0 48.1563281,0 C49.7245313,0 51.2763281,0.146953125 52.7629688,0.40828125 Z" id="Shape" fill="url(#linearGradient-2)"></path>
                    <path d="M78.0825,17.3479687 L72.9696094,22.4608594 L71.4829687,23.0978906 L70.4048437,19.6511719 C67.7259375,10.9771875 60.4075781,4.83515625 51.6517969,3.52828125 C51.9785156,2.4665625 52.3542187,1.43742188 52.7627344,0.40828125 L52.7627344,0.391875 C62.6292187,2.1234375 70.6171875,9.27820312 73.5248437,18.6710156 C74.9625,18.0667969 76.4978906,17.6257031 78.0825,17.3479687 Z" id="Shape" fill="#EFE748"></path>
                    <path d="M78.0825,17.3479687 L72.9696094,22.4608594 L71.4829687,23.0978906 L70.4048437,19.6511719 C67.7259375,10.9771875 60.4075781,4.83515625 51.6517969,3.52828125 C51.9785156,2.4665625 52.3542187,1.43742188 52.7627344,0.40828125 L52.7627344,0.391875 C62.6292187,2.1234375 70.6171875,9.27820312 73.5248437,18.6710156 C74.9625,18.0667969 76.4978906,17.6257031 78.0825,17.3479687 Z" id="Shape" fill="url(#linearGradient-3)"></path>
                    <path d="M50.1358594,16.5761719 C49.8475781,12.0121875 50.4082031,7.61859375 51.6567187,3.525 C50.5096875,3.3534375 49.3401563,3.25617187 48.1502344,3.25617187 C35.3039062,3.25617187 24.8533594,13.708125 24.8533594,26.5546875 C24.8533594,27.2214844 24.8835937,27.88125 24.9379687,28.5335156 L25.3289062,33.1907812 L20.8207031,31.9577344 C19.9657031,31.7240625 19.0851563,31.6052344 18.2060156,31.6052344 C17.7051563,31.6052344 17.1963281,31.644375 16.6952344,31.7200781 C12.2796094,32.3892187 8.7796875,36.1021875 8.37445313,40.5480469 C8.19890625,42.4535156 8.56898437,44.3470313 9.44015625,46.0244531 L11.2985156,49.6010156 L7.415625,50.679375 C4.97015625,51.358125 3.2615625,53.5971094 3.2615625,56.1239062 C3.2615625,59.2394531 5.79632813,61.7742187 8.91351562,61.7742187 L33.6644531,61.7742187 L58.2592969,37.1796094 C53.608125,31.4575781 50.6261719,24.3353906 50.1358594,16.5761719 Z" id="Shape" fill="url(#linearGradient-4)"></path>
                    <path d="M50.1358594,16.5761719 C49.8475781,12.0121875 50.4082031,7.61859375 51.6567187,3.525 C50.5096875,3.3534375 49.3401563,3.25617187 48.1502344,3.25617187 C35.3039062,3.25617187 24.8533594,13.708125 24.8533594,26.5546875 C24.8533594,27.2214844 24.8835937,27.88125 24.9379687,28.5335156 L25.3289062,33.1907812 L20.8207031,31.9577344 C19.9657031,31.7240625 19.0851563,31.6052344 18.2060156,31.6052344 C17.7051563,31.6052344 17.1963281,31.644375 16.6952344,31.7200781 C12.2796094,32.3892187 8.7796875,36.1021875 8.37445313,40.5480469 C8.19890625,42.4535156 8.56898437,44.3470313 9.44015625,46.0244531 L11.2985156,49.6010156 L7.415625,50.679375 C4.97015625,51.358125 3.2615625,53.5971094 3.2615625,56.1239062 C3.2615625,59.2394531 5.79632813,61.7742187 8.91351562,61.7742187 L33.6644531,61.7742187 L58.2592969,37.1796094 C53.608125,31.4575781 50.6261719,24.3353906 50.1358594,16.5761719 Z" id="Shape" fill="url(#linearGradient-5)" opacity="0.3"></path>
                    <path d="M50.1358594,16.5761719 C50.6261719,24.3353906 53.6078906,31.4575781 58.2595312,37.1796094 L72.9733594,22.4655469 L71.480625,23.1039844 L70.4069531,19.6432031 C67.7198438,10.9764844 60.4136719,4.83375 51.6564844,3.525 C50.4082031,7.61859375 49.8475781,12.0121875 50.1358594,16.5761719 Z" id="Shape" fill="#EFE748"></path>
                    <path d="M50.1358594,16.5761719 C50.6261719,24.3353906 53.6078906,31.4575781 58.2595312,37.1796094 L72.9733594,22.4655469 L71.480625,23.1039844 L70.4069531,19.6432031 C67.7198438,10.9764844 60.4136719,4.83375 51.6564844,3.525 C50.4082031,7.61859375 49.8475781,12.0121875 50.1358594,16.5761719 Z" id="Shape" fill="url(#linearGradient-6)"></path>
                    <path d="M50.1358594,16.5761719 C50.6261719,24.3353906 53.6078906,31.4575781 58.2595312,37.1796094 L72.9733594,22.4655469 L71.480625,23.1039844 L70.4069531,19.6432031 C67.7198438,10.9764844 60.4136719,4.83375 51.6564844,3.525 C50.4082031,7.61859375 49.8475781,12.0121875 50.1358594,16.5761719 Z" id="Shape" fill="url(#linearGradient-7)" opacity="0.3"></path>
                    <path d="M120,56.1236719 C120,51.2189063 115.987031,47.2059375 111.082266,47.2059375 L102.355078,47.2059375 C99.45,48.5929687 96.3349219,49.6066406 93.0679688,50.1876562 L92.8999219,50.4728906 L111.082734,50.4728906 C114.198281,50.4728906 116.733047,53.0076563 116.733047,56.1239062 C116.733047,59.2394531 114.198281,61.7742187 111.082734,61.7742187 L33.6646875,61.7742187 L30.3977344,65.0411719 L111.082266,65.0411719 C115.987031,65.0414062 120,61.0284375 120,56.1236719 Z" id="Shape" fill="#EDEDEC"></path>
                    <g transform="translate(33.515625, 16.875000)" id="Shape">
                        <path d="M62.2905469,28.6678125 C64.1690625,25.4660156 64.9204687,21.8069531 64.4632031,18.0499219 C64.4142188,17.6252344 64.3324219,17.1841406 64.2508594,16.775625 C62.9114062,10.3558594 57.7167187,5.12859375 51.2969531,3.82171875 C50.9702344,3.74015625 50.6271094,3.6909375 50.3003906,3.64195312 C49.5,3.52757812 48.6667969,3.4621875 47.8664062,3.4621875 C45.5796094,3.4621875 43.3741406,3.91945312 41.2996875,4.80164062 L39.45375,5.585625 L44.5666406,0.472734375 C45.579375,0.309375 46.6246875,0.21140625 47.6702344,0.195 C48.6829688,0.195 49.7121094,0.260390625 50.7576563,0.40734375 C59.5785938,1.63242188 66.6028125,8.80359375 67.6973438,17.6409375 C67.8117188,18.5721094 67.8607031,19.486875 67.8607031,20.3852344 C67.828125,24.0278906 66.8315625,27.4094531 65.1,30.3332812 L68.8408594,30.3332812 C65.9332031,31.7217188 62.8132031,32.7346875 59.5460156,33.3063281 L62.2905469,28.6678125 Z" fill="#F2F2F2"></path>
                        <path d="M77.5671094,33.5978906 L59.3842969,33.5978906 L59.5523437,33.3126562 L62.2860937,28.6725 C64.1716406,25.4739844 64.9230469,21.8010937 64.45875,18.0496875 C63.5559375,10.7226562 57.6023437,4.66171875 50.3025,3.63679687 C49.4920312,3.52265625 48.6721875,3.46523437 47.865,3.46523437 C45.5854687,3.46523437 43.374375,3.9159375 41.2957031,4.80445312 L39.4577344,5.59054687 L24.7439063,20.3046094 L0.1490625,44.8992187 L77.5671094,44.8992187 C80.6826562,44.8992187 83.2174219,42.3644531 83.2174219,39.2489062 C83.2174219,36.1326562 80.6826562,33.5978906 77.5671094,33.5978906 Z" fill="url(#linearGradient-8)"></path>
                    </g>
                    <g transform="translate(11.484375, 73.359375)" id="Shape">
                        <path d="M7.39898438,0.043359375 C7.39898438,0.043359375 2.10351563,2.05734375 0.50015625,5.83921875 C-0.19734375,7.48429687 0.394453125,9.1275 1.53867188,10.1725781 L8.3578125,3.3534375 C8.00367188,1.46273437 7.39898438,0.043359375 7.39898438,0.043359375 Z" fill="#A0D7DC"></path>
                        <path d="M1.53867187,10.1723437 C1.90101562,10.5032812 2.31632812,10.7775 2.76703125,10.9685156 C4.64085937,11.7630469 7.11140625,11.1975 8.0296875,9.03164062 C8.79726562,7.22132812 8.68289062,5.08898437 8.3578125,3.35320312 L1.53867187,10.1723437 Z" fill="#88C8C9"></path>
                    </g>
                    <g transform="translate(29.296875, 87.890625)" id="Shape">
                        <path d="M7.36289063,0.21375 C7.36289063,0.21375 2.06742188,2.22773437 0.4640625,6.00960937 C-0.2334375,7.6546875 0.358359375,9.29789062 1.50257813,10.3429687 L8.32171875,3.52382812 C7.96757813,1.63335937 7.36289063,0.21375 7.36289063,0.21375 Z" fill="#A0D7DC"></path>
                        <path d="M1.50257813,10.3427344 C1.86492187,10.6736719 2.28023438,10.9478906 2.73070313,11.1389063 C4.60453125,11.9334375 7.07507813,11.368125 7.99359375,9.20203125 C8.76117187,7.39171875 8.64679687,5.25960937 8.32171875,3.52359375 L1.50257813,10.3427344 Z" fill="#88C8C9"></path>
                    </g>
                    <g transform="translate(42.187500, 71.484375)" id="Shape">
                        <path d="M7.20140625,0.069375 C7.20140625,0.069375 1.9059375,2.08335938 0.302578125,5.86523437 C-0.394921875,7.5103125 0.196875,9.15351562 1.34109375,10.1985937 L8.16023437,3.37945312 C7.80609375,1.48875 7.20140625,0.069375 7.20140625,0.069375 Z" fill="#A0D7DC"></path>
                        <path d="M1.34109375,10.1983594 C1.7034375,10.5292969 2.11875,10.8035156 2.56921875,10.9945312 C4.44304688,11.7890625 6.91359375,11.22375 7.83210938,9.05765625 C8.5996875,7.24734375 8.4853125,5.11523437 8.16,3.37921875 L1.34109375,10.1983594 Z" fill="#88C8C9"></path>
                    </g>
                    <g transform="translate(58.125000, 87.890625)" id="Shape">
                        <path d="M7.3340625,0.21375 C7.3340625,0.21375 2.03859375,2.22773437 0.435234375,6.00960937 C-0.262265625,7.6546875 0.32953125,9.29789062 1.47375,10.3429687 L8.29289062,3.52382812 C7.93875,1.63335937 7.3340625,0.21375 7.3340625,0.21375 Z" fill="#A0D7DC"></path>
                        <path d="M1.47375,10.3427344 C1.83609375,10.6736719 2.25140625,10.9478906 2.70210938,11.1389063 C4.5759375,11.9334375 7.04648438,11.368125 7.965,9.20203125 C8.73257812,7.39171875 8.61820312,5.25960937 8.293125,3.52359375 L1.47375,10.3427344 Z" fill="#88C8C9"></path>
                    </g>
                    <g transform="translate(72.187500, 72.656250)" id="Shape">
                        <path d="M7.42875,0.20203125 C7.42875,0.20203125 2.13328125,2.21601563 0.529921875,5.99789063 C-0.167578125,7.64296875 0.42421875,9.28617187 1.5684375,10.33125 L8.38757813,3.51210938 C8.0334375,1.62140625 7.42875,0.20203125 7.42875,0.20203125 Z" fill="#A0D7DC"></path>
                        <path d="M1.5684375,10.3310156 C1.93078125,10.6619531 2.34609375,10.9361719 2.79679687,11.1271875 C4.670625,11.9217187 7.14117187,11.3564063 8.0596875,9.1903125 C8.82726562,7.38 8.71289062,5.24789062 8.3878125,3.511875 L1.5684375,10.3310156 Z" fill="#88C8C9"></path>
                    </g>
                </g>
            </g>
        </g>
    </g>
</svg>