<?xml version="1.0" encoding="UTF-8"?>
<svg width="135px" height="136px" viewBox="0 0 135 136" version="1.1" xmlns="http://www.w3.org/2000/svg" xmlns:xlink="http://www.w3.org/1999/xlink">
    <!-- Generator: Sketch 51 (57462) - http://www.bohemiancoding.com/sketch -->
    <title>weather-icon-sunny</title>
    <desc>Created with Sketch.</desc>
    <defs>
        <filter x="-9.2%" y="-9.2%" width="122.7%" height="122.5%" filterUnits="objectBoundingBox" id="filter-1">
            <feOffset dx="2" dy="2" in="SourceAlpha" result="shadowOffsetOuter1"></feOffset>
            <feGaussianBlur stdDeviation="4" in="shadowOffsetOuter1" result="shadowBlurOuter1"></feGaussianBlur>
            <feColorMatrix values="0 0 0 0 0   0 0 0 0 0   0 0 0 0 0  0 0 0 0.5 0" type="matrix" in="shadowBlurOuter1" result="shadowMatrixOuter1"></feColorMatrix>
            <feMerge>
                <feMergeNode in="shadowMatrixOuter1"></feMergeNode>
                <feMergeNode in="SourceGraphic"></feMergeNode>
            </feMerge>
        </filter>
    </defs>
    <g id="Symbols" stroke="none" stroke-width="1" fill="none" fill-rule="evenodd">
        <g id="Sunny-day-min-max-weather" transform="translate(6.000000, -82.000000)" fill-rule="nonzero">
            <g id="weather-icon-sunny" filter="url(#filter-1)" transform="translate(0.000000, 88.000000)">
                <g id="Group" transform="translate(1.171875, 1.640625)">
                    <g transform="translate(28.593750, 28.593750)" fill="#BFB61E" id="Shape">
                        <path d="M30.7905469,74.7942187 C28.0289062,74.7942187 25.7896875,75.1211719 25.7896875,79.0448437 C25.7896875,80.9505469 28.0286719,89.765625 30.7905469,89.765625 C33.5524219,89.765625 35.7911719,80.9505469 35.7911719,79.0448437 C35.7911719,75.1214062 33.5521875,74.7942187 30.7905469,74.7942187 Z"></path>
                        <path d="M52.8874219,68.8734375 C50.495625,70.2541406 48.7202344,71.656875 50.6819531,75.0548438 C51.6346875,76.7050781 57.9813281,83.2197656 60.373125,81.8388281 C62.7649219,80.4578906 60.29625,71.7042188 59.3435156,70.0539844 C57.3817969,66.65625 55.2792188,67.4925 52.8874219,68.8734375 Z"></path>
                        <path d="M75.2451563,50.491875 C71.8471875,48.5301562 70.4444531,50.3055469 69.0635156,52.6973437 C67.6825781,55.0891406 66.8463281,57.1917187 70.2442969,59.1534375 C71.8945313,60.1061719 80.6482031,62.5748437 82.0291406,60.1830469 C83.4100781,57.79125 76.8953906,51.4446094 75.2451563,50.491875 Z"></path>
                        <path d="M79.2351563,25.5996094 C75.3114844,25.5996094 74.9845313,27.8385937 74.9845313,30.6004688 C74.9845313,33.3623437 75.3117188,35.6010938 79.2351563,35.6010938 C81.140625,35.6010938 89.9559375,33.3621094 89.9559375,30.6004688 C89.9559375,27.8383594 81.140625,25.5996094 79.2351563,25.5996094 Z"></path>
                        <path d="M70.2445313,2.04726563 C66.8465625,4.00898438 67.6828125,6.1115625 69.06375,8.50335938 C70.4446875,10.8949219 71.8474219,12.6705469 75.2453906,10.7088281 C76.895625,9.75609375 83.4103125,3.40945313 82.029375,1.01765625 C80.6482031,-1.37414062 71.8945313,1.09453125 70.2445313,2.04726563 Z"></path>
                        <path d="M8.6934375,68.8734375 C6.30164063,67.4925 4.1990625,66.65625 2.23734375,70.0542188 C1.28460938,71.7044531 -1.1840625,80.458125 1.20773438,81.8390625 C3.59953125,83.22 9.9459375,76.7053125 10.8989063,75.0550781 C12.860625,71.6571094 11.0852344,70.254375 8.6934375,68.8734375 Z"></path>
                        <path d="M69.6623438,30.6002344 C69.6623438,19.8660937 65.3114062,10.1479687 58.2771094,3.11367187 L3.30398438,58.0867969 C10.3382813,65.1210937 20.0564063,69.4722656 30.7905469,69.4722656 C52.2588281,69.4722656 69.6623438,52.0685156 69.6623438,30.6002344 Z"></path>
                    </g>
                    <g fill="#C6BA56" id="Shape">
                        <path d="M37.2914063,20.9153906 C34.9141406,22.2876562 32.8265625,23.11875 30.8936719,19.8330469 C30.8744531,19.8135937 30.855,19.7751562 30.8355469,19.7364844 C29.8692188,18.09375 27.4146094,9.33796875 29.791875,7.94625 C31.5892969,6.90234375 35.6676563,10.3621875 37.9291406,12.8167969 C38.7021094,13.6286719 39.2627344,14.3245312 39.4947656,14.7302344 C41.446875,18.1321875 39.688125,19.543125 37.2914063,20.9153906 Z"></path>
                        <g>
                            <path d="M64.3896094,10.7486719 L64.3896094,10.8839062 C64.3314844,14.6723437 62.1086719,15.0009375 59.3835938,15.0009375 C57.1994531,15.0009375 55.3439063,14.7883594 54.6675,12.7783594 C54.474375,12.2564062 54.3775781,11.58 54.3775781,10.7486719 C54.3775781,9.56976562 55.228125,5.76210937 56.5230469,3.01734375 C57.3541406,1.31648437 58.3399219,0.0215625 59.3835938,0.0215625 C59.6927344,0.0215625 60.0021094,0.137578125 60.2920313,0.35015625 C62.6308594,1.91578125 64.3896094,9.0478125 64.3896094,10.7486719 Z"></path>
                            <path d="M21.1136719,37.093125 C19.7219531,39.4898437 18.3304687,41.2680469 14.9285156,39.2964844 C14.0008594,38.7745312 11.5460156,36.5325 9.80648438,34.2517969 C9.78726562,34.2323437 9.7678125,34.213125 9.7678125,34.1936719 C8.43421875,32.4349219 7.545,30.6567187 8.1440625,29.6128125 C9.53578125,27.2160937 18.2721094,29.6901562 19.9342969,30.6372656 C20.2242187,30.8111719 20.4946875,30.9850781 20.7267187,31.1589844 C23.1817969,32.9763281 22.3699219,34.9089844 21.1136719,37.093125 Z"></path>
                            <path d="M15.1992188,59.1853125 C15.1992188,61.8914063 14.8898438,64.1142187 11.1595312,64.1913281 L10.9469531,64.1913281 C9.11085937,64.1913281 0.838359375,62.10375 0.25828125,59.4752344 C0.2390625,59.4752344 0.2390625,59.4752344 0.2390625,59.4752344 C0.2390625,59.3786719 0.219609375,59.2821094 0.219609375,59.1853125 C0.219609375,58.1221875 1.55320312,57.1171875 3.29273437,56.3247656 C6.0375,55.0298437 9.78703125,54.19875 10.9467187,54.19875 C12.0485156,54.19875 12.8601562,54.3726562 13.4594531,54.6820312 C15.0253125,55.4936719 15.1992188,57.2139844 15.1992188,59.1853125 Z"></path>
                            <path d="M14.9296875,79.085625 C13.2794531,80.0383594 6.76476562,86.385 8.14570312,88.7767969 C9.52664062,91.1685937 18.2803125,88.6999219 19.9303125,87.7471875 C23.3282812,85.7854688 22.4920312,83.6828906 21.1110937,81.2910938 C19.7303906,78.8992969 18.3274219,77.1239062 14.9296875,79.085625 Z"></path>
                            <path d="M81.4811719,20.9210156 C83.8729687,22.3019531 85.9755469,23.1382031 87.9372656,19.7402344 C88.89,18.09 91.3586719,9.33632812 88.966875,7.95539063 C86.5750781,6.57445312 80.2284375,13.0891406 79.2757031,14.739375 C77.3139844,18.1373437 79.089375,19.5400781 81.4811719,20.9210156 Z"></path>
                            <path d="M59.3842969,20.3221875 C37.9160156,20.3221875 20.5125,37.7257031 20.5125,59.1939844 C20.5125,69.928125 24.8632031,79.6460156 31.8977344,86.6805469 L86.8708594,31.7074219 C79.8363281,24.6728906 70.1184375,20.3221875 59.3842969,20.3221875 Z"></path>
                        </g>
                    </g>
                </g>
                <g id="Group" transform="translate(28.359375, 28.359375)" fill="#EFE748">
                    <path d="M30.79875,74.9915625 C28.0371094,74.9915625 25.7978906,75.3185156 25.7978906,79.2421875 C25.7978906,81.1478906 28.036875,89.9629688 30.79875,89.9629688 C33.560625,89.9629688 35.799375,81.1478906 35.799375,79.2421875 C35.799375,75.31875 33.5603906,74.9915625 30.79875,74.9915625 Z" id="Shape"></path>
                    <path d="M52.895625,69.0707813 C50.5038281,70.4517188 48.7284375,71.8544531 50.6901563,75.2524219 C51.6428906,76.9026563 57.9895312,83.4173438 60.3813281,82.0364063 C62.773125,80.6554688 60.3044531,71.9017969 59.3517187,70.2515625 C57.39,66.8535938 55.2874219,67.6898438 52.895625,69.0707813 Z" id="Shape"></path>
                    <path d="M75.2533594,50.6892187 C71.8553906,48.7275 70.4526563,50.5028906 69.0717188,52.8946875 C67.6907813,55.2864844 66.8545313,57.3890625 70.2525,59.3507812 C71.9027344,60.3035156 80.6564063,62.7721875 82.0373438,60.3803906 C83.4182813,57.9885937 76.9035938,51.6419531 75.2533594,50.6892187 Z" id="Shape"></path>
                    <path d="M79.2433594,25.7967188 C75.3196875,25.7967188 74.9927344,28.0357031 74.9927344,30.7975781 C74.9927344,33.5594531 75.3196875,35.7982031 79.2433594,35.7982031 C81.1488281,35.7982031 89.9641406,33.5592187 89.9641406,30.7975781 C89.9639063,28.0357031 81.1488281,25.7967188 79.2433594,25.7967188 Z" id="Shape"></path>
                    <path d="M70.2525,2.24460938 C66.8547656,4.20632813 67.6907813,6.30890625 69.0717188,8.70070312 C70.4526563,11.0925 71.8553906,12.8678906 75.2533594,10.9061719 C76.9035938,9.9534375 83.4182813,3.60679687 82.0373438,1.215 C80.6564063,-1.17679687 71.9027344,1.29164063 70.2525,2.24460938 Z" id="Shape"></path>
                    <path d="M8.70164063,69.0707813 C6.30984375,67.6898438 4.20726563,66.8535938 2.24554688,70.2515625 C1.2928125,71.9017969 -1.17585937,80.6554688 1.21617188,82.0364063 C3.60796875,83.4173438 9.954375,76.9026563 10.9073438,75.2524219 C12.8688281,71.8542188 11.0934375,70.4517188 8.70164063,69.0707813 Z" id="Shape"></path>
                    <path d="M69.6705469,30.7975781 C69.6705469,20.0634375 65.3196094,10.3453125 58.2853125,3.31101563 L3.3121875,58.2841406 C10.3467188,65.3184375 20.0646094,69.6696094 30.79875,69.6696094 C52.2670312,69.6696094 69.6705469,52.2658594 69.6705469,30.7975781 Z" id="Shape"></path>
                </g>
                <g id="Group" fill="#FAF2AF">
                    <path d="M37.0523438,20.8746094 C35.2546875,21.9182812 33.6119531,22.6528125 32.0655469,21.4739062 C31.5630469,21.1066406 31.0797656,20.5267969 30.5964844,19.6957031 C29.649375,18.0527344 27.1753125,9.2971875 29.5720313,7.9246875 C31.8721875,6.59109375 37.7674219,12.5055469 39.1010156,14.4576562 C39.1783594,14.5542187 39.23625,14.6315625 39.2749219,14.7089062 C41.2272656,18.0911719 39.4490625,19.5021094 37.0523438,20.8746094 Z" id="Shape"></path>
                    <g id="Shape">
                        <path d="M64.1505469,10.7078906 C64.1505469,10.843125 64.1505469,10.9785937 64.1310937,11.0946094 C63.9958594,14.6510156 61.8309375,14.9601563 59.16375,14.9601563 C58.15875,14.9601563 57.2308594,14.9214844 56.4384375,14.6702344 C56.2258594,14.6123437 56.0325,14.5157812 55.839375,14.4189844 C55.2014062,14.0903906 54.6989062,13.5492187 54.4284375,12.6794531 C54.4089844,12.66 54.4284375,12.66 54.4284375,12.66 C54.2545312,12.1380469 54.1577344,11.4810938 54.1577344,10.7078906 C54.1577344,9.56765625 54.9696094,5.91445312 56.2258594,3.18914063 C56.9796094,1.54617187 57.9075,0.23203125 58.8932812,0.038671875 C58.9898438,0.019453125 59.0671875,0 59.16375,0 C59.9950781,0 60.7872656,0.811640625 61.4639063,1.99078125 C61.6959375,2.37726563 61.9085156,2.80265625 62.1210937,3.26648438 C63.358125,5.97234375 64.1505469,9.586875 64.1505469,10.7078906 Z"></path>
                        <path d="M20.8938281,37.0523438 C19.5023438,39.4490625 18.110625,41.2272656 14.7086719,39.2751563 C14.0128125,38.8692188 12.4474219,37.5161719 10.9783594,35.8926563 C10.9591406,35.8732031 10.9396875,35.8539844 10.9396875,35.8345313 C8.92945312,33.6311719 7.13203125,30.9445313 7.92445312,29.5722656 C9.29671875,27.1755469 18.0525,29.6496094 19.6952344,30.5967188 C20.9128125,31.3117969 21.6086719,32.0463281 21.8985938,32.8000781 C22.4207812,34.1336719 21.7635937,35.5448437 20.8938281,37.0523438 Z"></path>
                        <path d="M14.9601563,59.16375 C14.9601563,61.9277344 14.6315625,64.1505469 10.708125,64.1505469 L10.65,64.1505469 C9.47109375,64.1310937 5.93390625,63.3578906 3.26648438,62.1403125 C2.59007812,61.8117188 1.95210937,61.483125 1.43015625,61.1158594 C1.4109375,61.1158594 1.4109375,61.1158594 1.4109375,61.1158594 C0.541171875,60.5167969 0,59.8596094 0,59.16375 C0,59.0864062 0,58.9898437 0.038671875,58.9125 C0.212578125,57.9653906 1.37226563,57.1150781 2.86054687,56.3610937 C5.62453125,55.0467187 9.52875,54.1577344 10.7078906,54.1577344 C11.1525,54.1577344 11.5584375,54.1964062 11.9257031,54.2542969 C13.5105469,54.4863281 14.2642969,55.2592969 14.6315625,56.3224219 C14.728125,56.5736719 14.78625,56.8635937 14.8249219,57.1535156 C14.9409375,57.7528125 14.9601563,58.4486719 14.9601563,59.16375 Z"></path>
                        <path d="M19.6954688,87.7117969 C18.4776563,88.426875 13.2785156,89.9732812 10.1472656,89.7217969 C9.78,89.7023437 9.45140625,89.6444531 9.14226563,89.5478906 C8.58164063,89.3932031 8.15648438,89.1225 7.9246875,88.7360156 C7.711875,88.36875 7.6734375,87.8854687 7.78945313,87.36375 C8.44664063,84.5029687 13.2979688,79.845 14.7089063,79.0525781 C15.4047656,78.6466406 16.0232813,78.3953906 16.5644531,78.2988281 C18.42,77.8928906 19.483125,78.9946875 20.4689063,80.5408594 C20.6041406,80.7728906 20.7588281,81.0046875 20.8940625,81.2559375 C21.3773438,82.1257031 21.8219531,82.9375781 21.9958594,83.73 C22.3242188,85.1409375 21.8796094,86.4553125 19.6954688,87.7117969 Z"></path>
                        <path d="M81.255,20.88375 C83.6467969,22.2646875 85.749375,23.1009375 87.7110938,19.7029687 C88.6638281,18.0527344 91.1325,9.2990625 88.7407031,7.918125 C86.3489062,6.5371875 80.0022656,13.051875 79.0495313,14.7021094 C77.0878125,18.1003125 78.8632031,19.5030469 81.255,20.88375 Z"></path>
                        <path d="M86.6486719,31.6790625 L86.4745312,31.8529687 L85.6821094,32.6453906 L31.6790625,86.6486719 C31.0992187,86.0688281 30.5580469,85.4889844 30.016875,84.8704688 C28.5672656,83.2277344 27.2528906,81.46875 26.0932031,79.5939844 C22.4210156,73.6600781 20.2947656,66.6632813 20.2947656,59.1639844 C20.2947656,37.6903125 37.6903125,20.2947656 59.1639844,20.2947656 C66.1802344,20.2947656 72.7710937,22.1503125 78.4729687,25.4360156 C81.46875,27.136875 84.2132812,29.2436719 86.6486719,31.6790625 Z"></path>
                    </g>
                </g>
            </g>
        </g>
    </g>
</svg>