<?xml version="1.0" encoding="UTF-8"?>
<svg width="136px" height="98px" viewBox="0 0 136 98" version="1.1" xmlns="http://www.w3.org/2000/svg" xmlns:xlink="http://www.w3.org/1999/xlink">
    <!-- Generator: Sketch 51 (57462) - http://www.bohemiancoding.com/sketch -->
    <title>weather-icon-overcast</title>
    <desc>Created with Sketch.</desc>
    <defs>
        <filter x="-9.2%" y="-13.5%" width="121.7%" height="132.8%" filterUnits="objectBoundingBox" id="filter-1">
            <feOffset dx="2" dy="2" in="SourceAlpha" result="shadowOffsetOuter1"></feOffset>
            <feGaussianBlur stdDeviation="4" in="shadowOffsetOuter1" result="shadowBlurOuter1"></feGaussianBlur>
            <feColorMatrix values="0 0 0 0 0   0 0 0 0 0   0 0 0 0 0  0 0 0 0.5 0" type="matrix" in="shadowBlurOuter1" result="shadowMatrixOuter1"></feColorMatrix>
            <feMerge>
                <feMergeNode in="shadowMatrixOuter1"></feMergeNode>
                <feMergeNode in="SourceGraphic"></feMergeNode>
            </feMerge>
        </filter>
        <linearGradient x1="37.4975879%" y1="49.1289917%" x2="113.18136%" y2="95.4227381%" id="linearGradient-2">
            <stop stop-color="#F0F0F0" offset="0%"></stop>
            <stop stop-color="#FFFFFF" offset="100%"></stop>
        </linearGradient>
        <linearGradient x1="50.000096%" y1="125.646426%" x2="50.000096%" y2="49.166157%" id="linearGradient-3">
            <stop stop-color="#D2D0CF" offset="0%"></stop>
            <stop stop-color="#FFFFFF" offset="100%"></stop>
        </linearGradient>
        <linearGradient x1="50.0006711%" y1="358.173206%" x2="50.0006711%" y2="139.058539%" id="linearGradient-4">
            <stop stop-color="#D2D0CF" offset="0%"></stop>
            <stop stop-color="#FFFFFF" offset="100%"></stop>
        </linearGradient>
        <linearGradient x1="49.9990786%" y1="134.092718%" x2="49.9990786%" y2="49.0727792%" id="linearGradient-5">
            <stop stop-color="#D2D0CF" offset="0%"></stop>
            <stop stop-color="#FFFFFF" offset="100%"></stop>
        </linearGradient>
        <linearGradient x1="89.5091332%" y1="-31.8673011%" x2="66.49036%" y2="28.8475877%" id="linearGradient-6">
            <stop stop-color="#D2D0CF" offset="0%"></stop>
            <stop stop-color="#FFFFFF" offset="100%"></stop>
        </linearGradient>
        <linearGradient x1="49.9992481%" y1="232.360439%" x2="49.9992481%" y2="84.5284468%" id="linearGradient-7">
            <stop stop-color="#D2D0CF" offset="0%"></stop>
            <stop stop-color="#FFFFFF" offset="100%"></stop>
        </linearGradient>
        <linearGradient x1="-204.259782%" y1="49.9991719%" x2="333.431097%" y2="49.9991719%" id="linearGradient-8">
            <stop stop-color="#D2D0CF" offset="0%"></stop>
            <stop stop-color="#FFFFFF" offset="100%"></stop>
        </linearGradient>
        <linearGradient x1="34.6377453%" y1="56.5810764%" x2="107.254406%" y2="123.603476%" id="linearGradient-9">
            <stop stop-color="#F0F0F0" offset="0%"></stop>
            <stop stop-color="#FFFFFF" offset="100%"></stop>
        </linearGradient>
    </defs>
    <g id="Symbols" stroke="none" stroke-width="1" fill="none" fill-rule="evenodd">
        <g id="Overcast-day-min-max-weather" transform="translate(6.000000, -96.000000)" fill-rule="nonzero">
            <g id="weather-icon-overcast" filter="url(#filter-1)" transform="translate(0.000000, 102.000000)">
                <path d="M111.750703,64.58625 L94.6825781,64.58625 C106.692891,58.8517969 114.796406,46.2510937 113.887031,31.8585937 C113.276953,22.2023437 108.510234,13.6054687 101.389453,7.81664062 L101.3925,7.81359375 C99.4129687,6.211875 97.2672656,4.83679687 94.985625,3.70335937 C91.1022656,1.78429687 86.8258594,0.590625 82.3228125,0.303515625 C67.2424219,-0.648515625 54.1113281,8.29710937 48.8074219,21.2922656 C48.8085937,21.2925 48.8097656,21.2927344 48.8109375,21.2929687 C48.4267969,22.2351562 48.0846094,23.1977344 47.7850781,24.1797656 C47.6903906,24.1654687 47.593125,24.1600781 47.4979687,24.1469531 C47.5914844,24.159375 47.686875,24.165 47.7799219,24.178125 C48.0822656,23.1960937 48.4296094,22.2288281 48.8074219,21.2920312 C47.4323437,21.0501562 45.9967969,20.9142187 44.54625,20.9142187 C30.976875,20.9142187 19.96125,31.9146094 19.96125,45.4842187 C19.96125,46.1791406 20.0064844,46.8742969 20.0519531,47.5694531 C18.4804687,47.1311719 16.7578125,47.0104687 14.9899219,47.2673437 C9.53507812,48.0984375 5.24367187,52.6617187 4.74492187,58.1470312 C4.51828125,60.5948437 5.01703125,62.9069531 6.04453125,64.88625 C2.56875,65.8535156 0,69.0569531 0,72.8348437 C0,73.3335937 0.04546875,73.8171094 0.1359375,74.2853906 C0.72515625,77.6702344 3.41484375,80.3446875 6.7996875,80.9491406 C7.26820312,81.0398438 7.75171875,81.0850781 8.25023437,81.0850781 L28.1205469,81.0850781 L28.1210156,81.0846094 L111.750469,81.0846094 C116.2875,81.0846094 119.999531,77.3725781 119.999531,72.8355469 C120,68.2982812 116.287969,64.58625 111.750703,64.58625 Z M23.4309375,51.6217969 L21.2132813,51.0152344 L23.4304688,51.6178125 L23.4309375,51.6217969 Z M15.4429688,50.259375 C15.9114844,50.1839062 16.38,50.1536719 16.8482812,50.1536719 C17.3674219,50.1536719 17.8919531,50.2164844 18.4157813,50.3095312 C17.8942969,50.218125 17.3690625,50.1550781 16.8419531,50.1550781 C16.3785938,50.1550781 15.9079687,50.1911719 15.4446094,50.26125 C13.9139062,50.4932812 12.5022656,51.1209375 11.3153906,52.03125 C12.5015625,51.1197656 13.9127344,50.491875 15.4429688,50.259375 Z M8.73351563,63.4933594 L9.24726563,64.4819531 L8.73421875,63.4961719 C8.6953125,63.4204687 8.6709375,63.3389062 8.63414063,63.2622656 C8.67046875,63.3382031 8.69460938,63.4185937 8.73351563,63.4933594 Z M6.04570313,68.1007031 C4.95515625,68.61 4.093125,69.4814062 3.57023438,70.5349219 C4.09125,69.4788281 4.95234375,68.6071875 6.04570313,68.1007031 Z M6.29859375,77.6775 C6.27210938,77.6667187 6.24210938,77.6629687 6.21585937,77.6517187 C6.24210938,77.6629688 6.27210938,77.6669531 6.29859375,77.6775 Z M7.19554688,77.9564062 C7.53515625,78.0260156 7.88648438,78.0625781 8.24648438,78.0625781 L31.141875,78.0625781 L31.1414062,78.0630469 L8.25046875,78.0630469 C7.8890625,78.0630469 7.53632813,78.02625 7.19554688,77.9564062 Z" id="Shape" fill="url(#linearGradient-2)"></path>
                <g id="Group" transform="translate(0.000000, 0.234375)">
                    <path d="M101.392266,7.57945313 L72.22875,36.7429688 C70.7629687,36.9846094 69.3426562,37.3926563 68.0128125,37.966875 C65.323125,29.263125 57.9339844,22.6598438 48.8071875,21.058125 C54.1110937,8.06296875 67.2421875,-0.88265625 82.3225781,0.069375 C86.825625,0.356484375 91.1017969,1.55015625 94.9853906,3.46921875 C97.2670313,4.60242188 99.4127344,5.97773438 101.392266,7.57945313 Z" id="Shape" fill="#F7EC88"></path>
                    <path d="M48.8071875,21.058125 C48.429375,21.9949219 48.0820312,22.9619531 47.7796875,23.9442188 C46.7219531,23.7930469 45.6492188,23.7025781 44.5460156,23.7025781 C32.6538281,23.7025781 22.9982813,33.3583594 22.9982813,45.2503125 C22.9982813,45.8697656 23.0135156,46.4742187 23.0739844,47.0786719 L23.4365625,51.3853125 L19.2660938,50.2521094 C18.4652344,50.0254687 17.649375,49.9195312 16.8485156,49.9195312 C16.38,49.9195312 15.9117188,49.9497656 15.4432031,50.0252344 C11.3634375,50.6449219 8.12976563,54.0747656 7.75195313,58.2002344 C7.58578125,59.953125 7.93335938,61.7060156 8.73421875,63.2622656 L10.4566406,66.5714062 L6.86039063,67.5686719 C4.59375,68.1883594 3.02226563,70.2583594 3.02226563,72.6004687 C3.02226563,75.4865625 5.364375,77.8286719 8.25070313,77.8286719 L31.1432813,77.8286719 L28.12125,80.8507031 L8.2509375,80.8507031 C7.7521875,80.8507031 7.26867188,80.8052344 6.80015625,80.7147656 C3.4153125,80.1103125 0.725625,77.4358594 0.13640625,74.0510156 C0.04546875,73.5825 0,73.0989844 0,72.6004687 C0,68.8228125 2.56875,65.619375 6.04429687,64.6523438 C5.01679687,62.6728125 4.51804688,60.3609375 4.74492188,57.913125 C5.2434375,52.4280469 9.53507813,47.8645312 14.9899219,47.0334375 C16.7580469,46.7765625 18.4804688,46.8975 20.0519531,47.3355469 C20.0064844,46.6403906 19.96125,45.9452344 19.96125,45.2503125 C19.96125,31.6809375 30.976875,20.6803125 44.54625,20.6803125 C45.9967969,20.6803125 47.4323437,20.81625 48.8071875,21.058125 Z" id="Shape" fill="url(#linearGradient-3)"></path>
                    <path d="M65.1297656,38.855625 L66.1228125,42.0569531 L67.50375,41.4663281 L72.2301563,36.7399219 C70.7610938,36.9841406 69.3471094,37.3917187 68.0165625,37.9605469 C65.3214844,29.2703906 57.9309375,22.6523437 48.8128125,21.0532031 C48.4277344,21.9970312 48.0848437,22.9617187 47.7848438,23.9458594 C55.8857813,25.1564062 62.6442188,30.8385937 65.1297656,38.855625 Z" id="Shape" fill="#EFE748"></path>
                    <path d="M65.1297656,38.855625 L66.1228125,42.0569531 L67.50375,41.4663281 L72.2301563,36.7399219 C70.7610938,36.9841406 69.3471094,37.3917187 68.0165625,37.9605469 C65.3214844,29.2703906 57.9309375,22.6523437 48.8128125,21.0532031 C48.4277344,21.9970312 48.0848437,22.9617187 47.7848438,23.9458594 C55.8857813,25.1564062 62.6442188,30.8385937 65.1297656,38.855625 Z" id="Shape" fill="url(#linearGradient-4)"></path>
                    <path d="M46.3783594,36.0185156 C46.1116406,31.7964844 46.6303125,27.7324219 47.7850781,23.9458594 C46.7240625,23.7871875 45.6421875,23.6971875 44.5415625,23.6971875 C32.6582813,23.6971875 22.99125,33.365625 22.99125,45.2489062 C22.99125,45.8657812 23.019375,46.4758594 23.0695313,47.079375 L23.4311719,51.3874219 L19.2609375,50.2467187 C18.4699219,50.030625 17.6554688,49.9207031 16.8424219,49.9207031 C16.3790625,49.9207031 15.9084375,49.9567969 15.4450781,50.026875 C11.3603906,50.6458594 8.12296875,54.0803906 7.74820313,58.1932031 C7.58578125,59.9559375 7.92820313,61.7074219 8.73398438,63.2589844 L10.453125,66.5674219 L6.86132813,67.5649219 C4.59914063,68.1928125 3.01875,70.2639844 3.01875,72.6014062 C3.01875,75.4832812 5.3634375,77.8282031 8.24695313,77.8282031 L31.1423438,77.8282031 L53.8933594,55.0774219 C49.5902344,49.7842969 46.831875,43.1960156 46.3783594,36.0185156 Z" id="Shape" fill="url(#linearGradient-5)"></path>
                    <path d="M46.3783594,36.0185156 C46.1116406,31.7964844 46.6303125,27.7324219 47.7850781,23.9458594 C46.7240625,23.7871875 45.6421875,23.6971875 44.5415625,23.6971875 C32.6582813,23.6971875 22.99125,33.365625 22.99125,45.2489062 C22.99125,45.8657812 23.019375,46.4758594 23.0695313,47.079375 L23.4311719,51.3874219 L19.2609375,50.2467187 C18.4699219,50.030625 17.6554688,49.9207031 16.8424219,49.9207031 C16.3790625,49.9207031 15.9084375,49.9567969 15.4450781,50.026875 C11.3603906,50.6458594 8.12296875,54.0803906 7.74820313,58.1932031 C7.58578125,59.9559375 7.92820313,61.7074219 8.73398438,63.2589844 L10.453125,66.5674219 L6.86132813,67.5649219 C4.59914063,68.1928125 3.01875,70.2639844 3.01875,72.6014062 C3.01875,75.4832812 5.3634375,77.8282031 8.24695313,77.8282031 L31.1423438,77.8282031 L53.8933594,55.0774219 C49.5902344,49.7842969 46.831875,43.1960156 46.3783594,36.0185156 Z" id="Shape" fill="url(#linearGradient-6)" opacity="0.3"></path>
                    <path d="M46.3783594,36.0185156 C46.831875,43.1960156 49.5902344,49.7842969 53.893125,55.0774219 L67.5039844,41.4665625 L66.1230469,42.0571875 L65.13,38.8558594 C62.6444531,30.8388281 55.8860156,25.1566406 47.7853125,23.9460937 C46.6303125,27.7324219 46.1116406,31.7964844 46.3783594,36.0185156 Z" id="Shape" fill="#EFE748"></path>
                    <path d="M46.3783594,36.0185156 C46.831875,43.1960156 49.5902344,49.7842969 53.893125,55.0774219 L67.5039844,41.4665625 L66.1230469,42.0571875 L65.13,38.8558594 C62.6444531,30.8388281 55.8860156,25.1566406 47.7853125,23.9460937 C46.6303125,27.7324219 46.1116406,31.7964844 46.3783594,36.0185156 Z" id="Shape" fill="url(#linearGradient-7)"></path>
                    <path d="M46.3783594,36.0185156 C46.831875,43.1960156 49.5902344,49.7842969 53.893125,55.0774219 L67.5039844,41.4665625 L66.1230469,42.0571875 L65.13,38.8558594 C62.6444531,30.8388281 55.8860156,25.1566406 47.7853125,23.9460937 C46.6303125,27.7324219 46.1116406,31.7964844 46.3783594,36.0185156 Z" id="Shape" fill="url(#linearGradient-8)" opacity="0.3"></path>
                    <path d="M77.9561719,36.6667969 C86.1178125,37.8124219 92.6205469,44.4417187 93.6307031,52.6211719 C94.1620312,56.9242969 93.211875,60.9803906 91.224375,64.3521094 L94.6825781,64.3521094 C106.692891,58.6176563 114.796406,46.0169531 113.887031,31.6244531 C113.276953,21.9679688 108.509766,13.3708594 101.388516,7.58179688 L72.2301563,36.7399219 C74.0627344,36.435 75.9832031,36.3897656 77.9561719,36.6667969 Z" id="Shape" fill="#EFE748"></path>
                    <path d="M120,72.6011719 C120,68.0641406 116.287969,64.3521094 111.750937,64.3521094 L94.6828125,64.3521094 C91.9954687,65.6350781 89.1138281,66.5728125 86.0917969,67.1102344 L85.9364062,67.3739062 L111.751406,67.3739062 C114.633281,67.3739062 116.978203,69.7185937 116.978203,72.6014062 C116.978203,75.4832812 114.633516,77.8282031 111.751406,77.8282031 L31.141875,77.8282031 L28.1198438,80.8502344 L111.750938,80.8502344 C116.287969,80.8502344 120,77.1382031 120,72.6011719 Z" id="Shape" fill="#EDEDEC"></path>
                    <path d="M93.6307031,52.6211719 C92.6205469,44.4414844 86.1178125,37.8124219 77.9561719,36.6667969 C75.9832031,36.3897656 74.0627344,36.4352344 72.2301563,36.7399219 L67.50375,41.4663281 L69.2039063,40.7392969 C71.1267188,39.9173437 73.171875,39.5003906 75.2805469,39.5003906 C76.0272656,39.5003906 76.7857031,39.5535937 77.5352344,39.6590625 C84.2878125,40.6071094 89.7949219,46.2138281 90.6302344,52.9914844 C91.0596094,56.4614062 90.3646875,59.8591406 88.6204688,62.8178906 L86.0917969,67.1102344 C89.1138281,66.5728125 91.9954688,65.6350781 94.6828125,64.3521094 L91.2246094,64.3521094 C93.2121094,60.9803906 94.1620312,56.9242969 93.6307031,52.6211719 Z" id="Shape" fill="#F8F6E7"></path>
                    <path d="M111.751406,67.3739062 L85.9364063,67.3739062 L86.0917969,67.1102344 L88.6204688,62.8178906 C90.3646875,59.8591406 91.0598438,56.4614062 90.6302344,52.9914844 C89.7949219,46.2138281 84.2878125,40.6071094 77.5352344,39.6590625 C76.7857031,39.5535937 76.0270312,39.5003906 75.2805469,39.5003906 C73.171875,39.5003906 71.1264844,39.9173437 69.2039062,40.7392969 L67.50375,41.4663281 L53.8928906,55.0771875 L31.141875,77.8279687 L111.751172,77.8279687 C114.633047,77.8279687 116.977969,75.4830469 116.977969,72.6011719 C116.977969,69.7188281 114.633281,67.3739062 111.751406,67.3739062 Z" id="Shape" fill="url(#linearGradient-9)"></path>
                </g>
            </g>
        </g>
    </g>
</svg>