<?xml version="1.0" encoding="UTF-8"?>
<svg width="136px" height="126px" viewBox="0 0 136 126" version="1.1" xmlns="http://www.w3.org/2000/svg" xmlns:xlink="http://www.w3.org/1999/xlink">
    <!-- Generator: Sketch 51 (57462) - http://www.bohemiancoding.com/sketch -->
    <title>weather-icon-stormy</title>
    <desc>Created with Sketch.</desc>
    <defs>
        <filter x="-9.2%" y="-9.9%" width="121.7%" height="123.7%" filterUnits="objectBoundingBox" id="filter-1">
            <feOffset dx="2" dy="2" in="SourceAlpha" result="shadowOffsetOuter1"></feOffset>
            <feGaussianBlur stdDeviation="4" in="shadowOffsetOuter1" result="shadowBlurOuter1"></feGaussianBlur>
            <feColorMatrix values="0 0 0 0 0   0 0 0 0 0   0 0 0 0 0  0 0 0 0.5 0" type="matrix" in="shadowBlurOuter1" result="shadowMatrixOuter1"></feColorMatrix>
            <feMerge>
                <feMergeNode in="shadowMatrixOuter1"></feMergeNode>
                <feMergeNode in="SourceGraphic"></feMergeNode>
            </feMerge>
        </filter>
    </defs>
    <g id="Symbols" stroke="none" stroke-width="1" fill="none" fill-rule="evenodd">
        <g id="Stormy-day-min-max-weather" transform="translate(6.000000, -116.000000)" fill-rule="nonzero">
            <g id="weather-icon-stormy" filter="url(#filter-1)" transform="translate(0.000000, 122.000000)">
                <path d="M95.6854687,56.4363281 L88.9038281,70.9080469 L94.2991406,70.9080469 L81.6834375,92.24625 L82.7697656,74.3428125 L75.1675781,74.3428125 L80.8092187,56.6826563 L80.8092187,56.4365625 C86.3289844,56.4363281 91.4273438,56.4363281 95.6854687,56.4363281 Z" id="Shape" fill="#E09B2D"></path>
                <path d="M53.5296094,56.8125 L62.17875,83.8884375 L50.5192969,83.8884375 L59.5474219,111.343594 L32.8448438,78.6260156 L41.1175781,78.6260156 L23.8195313,56.4360937 C30.069375,56.4360937 41.2816406,56.4360937 53.5296094,56.4360937 L53.5296094,56.8125 Z" id="Shape" fill="#F7B239"></path>
                <path d="M108.728203,34.475625 C115.020469,34.8801562 120,40.1085937 120,46.5028125 C120,53.1628125 114.601875,58.5583594 107.944453,58.5583594 C107.115469,58.5583594 102.464297,58.5583594 95.6852344,58.5583594 C91.4271094,58.5583594 86.3289844,58.5583594 80.8089844,58.5583594 C72.208125,58.5583594 62.5858594,58.5583594 53.529375,58.5583594 C41.2816406,58.5583594 30.0691406,58.5583594 23.8192969,58.5583594 C21.241875,58.5583594 19.5075,58.5583594 18.8936719,58.5583594 C8.45671875,58.558125 0,50.1016406 0,39.6644531 C0,29.2300781 8.45671875,20.7735938 18.8936719,20.7735938 C19.4709375,20.7735938 20.0423438,20.8019531 20.6053125,20.8528125 C24.2578125,8.90765625 35.3655469,0.219140625 48.5046094,0.219140625 C59.1171094,0.219140625 68.4028125,5.88609375 73.5067969,14.356875 C76.9359375,12.4188281 80.8940625,11.3069531 85.1151562,11.3069531 C98.008125,11.3067187 108.484922,21.6391406 108.728203,34.475625 Z" id="Shape" fill="#666666"></path>
                <g id="Group" fill="#4D4D4D">
                    <path d="M11.8828125,44.1911719 C11.8828125,33.7567969 20.3395313,25.3003125 30.7764844,25.3003125 C31.35375,25.3003125 31.9251562,25.3286719 32.488125,25.3795312 C36.140625,13.434375 47.2483594,4.74585937 60.3874219,4.74585937 C61.8128906,4.74585937 63.2130469,4.85132812 64.5834375,5.04890625 C59.9739844,1.99734375 54.4476563,0.219140625 48.5046094,0.219140625 C35.3655469,0.219140625 24.2578125,8.90789063 20.6053125,20.8528125 C20.0423438,20.8019531 19.4707031,20.7735937 18.8936719,20.7735937 C8.45671875,20.7735937 0,29.2300781 0,39.6644531 C0,49.9694531 8.2453125,58.3378125 18.4999219,58.5482813 C14.4515625,55.0832812 11.8828125,49.9394531 11.8828125,44.1911719 Z" id="Shape"></path>
                    <path d="M40.6328906,51.9011719 C39.8716406,51.9011719 39.1354687,51.4903125 38.7548437,50.7703125 C37.4111719,48.2282813 36.7010156,45.3553125 36.7010156,42.4621875 C36.7010156,32.6339063 44.6955469,24.6379687 54.5221875,24.6379687 C59.3320312,24.6379687 63.8542969,26.5457812 67.1925,29.9289844 C68.7960937,29.1065625 70.5689062,28.678125 72.4089844,28.678125 C78.7272656,28.678125 83.8673438,33.8172656 83.8673438,40.1336719 C83.8673438,40.2264844 83.8657031,40.3190625 83.8596094,40.411875 C83.7808594,41.5809375 82.7721094,42.4647656 81.6002344,42.3867188 C80.4407813,42.3089063 79.561875,41.31375 79.62375,40.156875 L79.62375,40.1334375 C79.62375,36.1570313 76.3872656,32.9217187 72.4092188,32.9217187 C70.8295313,32.9217187 69.3295313,33.421875 68.0714063,34.3685156 C67.1538281,35.0585156 65.8542188,34.8942188 65.1379688,33.9972656 C62.5403906,30.74625 58.6713281,28.8817969 54.5224219,28.8817969 C47.0360156,28.8817969 40.9450781,34.9741406 40.9450781,42.4621875 C40.9450781,44.6667188 41.4850781,46.8536719 42.5071875,48.7872656 C43.0549219,49.8234375 42.6588281,51.1073438 41.6226563,51.6546094 C41.30625,51.8219531 40.9673438,51.9011719 40.6328906,51.9011719 Z" id="Shape"></path>
                </g>
            </g>
        </g>
    </g>
</svg>