<svg id="Capa_1" enable-background="new 0 0 512 512" height="512" viewBox="0 0 512 512" width="512" xmlns="http://www.w3.org/2000/svg"><g><g><g><path d="m362.82 200.96c-5.347-5.703-8.322-13.228-8.322-21.046v-19.904h-37.753v19.904c0 7.818-2.976 15.342-8.322 21.046l-19.446 20.743h93.289z" fill="#74a4b7"/></g><g><path d="m76.63 172.28h-32.4v-44.67c0-8.947 7.253-16.2 16.2-16.2 8.947 0 16.2 7.253 16.2 16.2z" fill="#0ed2b3"/></g><g><path d="m87.8 224.6h-54.74v-63.088c0-1.105.895-2 2-2h50.74c1.105 0 2 .895 2 2z" fill="#eef5f6"/></g><g><path d="m51.26 159.511h-16.2c-1.105 0-2 .896-2 2v63.089h16.2v-63.089c0-1.104.895-2 2-2z" fill="#deecf1"/></g><g><path d="m457.398 227.589h-41.862v-23.579c0-5.523 4.477-10 10-10h21.862c5.523 0 10 4.477 10 10z" fill="#deecf1"/></g><g><path d="m52.49 242.556h402.15v142.844h-402.15z" fill="#ecbba3"/></g><g><path d="m52.49 242.556h42.27v142.844h-42.27z" fill="#e8ad8c"/></g><g><path d="m217.771 418.396-11.76-1.676-70.394 79.465c-2.858 3.226-.568 8.315 3.743 8.315h24.74c1.445 0 2.819-.625 3.768-1.713l49.903-57.215z" fill="#a8d3d8"/></g><g><path d="m220.912 418.396 11.76-1.676 70.394 79.465c2.858 3.226.568 8.315-3.743 8.315h-24.74c-1.445 0-2.819-.625-3.768-1.713l-49.903-57.215z" fill="#a8d3d8"/></g><g><path d="m426.467 160.01h-181.692c-5.523 0-10-4.477-10-10v-132.51c0-5.523 4.477-10 10-10h181.692c5.523 0 10 4.477 10 10v132.51c0 5.523-4.477 10-10 10z" fill="#c3ddff"/></g><g><path d="m426.467 160.01c5.523 0 10-4.477 10-10v-22.4h-201.692v22.4c0 5.523 4.477 10 10 10z" fill="#89b4c9"/></g><g><path d="m234.775 127.61v22.4c0 5.523 4.477 10 10 10h99.193v-32.4z" fill="#74a4b7"/></g><g><path d="m316.744 179.914c0 7.818-2.976 15.342-8.322 21.046l-19.446 20.743h54.991v-61.693h-27.223z" fill="#5b94a5"/></g><g><path d="m343.968 127.61v-15.09c0-35.841-29.159-65-65-65h-21.873v-30.02c0-5.523 4.477-10 10-10h-22.32c-5.523 0-10 4.477-10 10v132.51c0 5.523 4.477 10 10 10h22.32c-5.523 0-10-4.477-10-10v-22.4z" fill="#a4ccff"/></g><g><path d="m66.92 504.5h-28.86c-2.761 0-5-2.239-5-5v-256.944h38.86v256.944c0 2.761-2.239 5-5 5z" fill="#dc8758"/></g><g><path d="m473.94 504.5h-28.86c-2.761 0-5-2.239-5-5v-256.944h38.86v256.944c0 2.761-2.238 5-5 5z" fill="#dc8758"/></g><g><path d="m7.5 231.363v22.386c0 5.523 4.477 10 10 10h477c5.523 0 10-4.477 10-10v-22.386c0-5.523-4.477-10-10-10h-477c-5.523 0-10 4.477-10 10z" fill="#ac5e2e"/></g><g><path d="m35.34 253.749v-22.386c0-5.523 4.477-10 10-10h-27.84c-5.523 0-10 4.477-10 10v22.386c0 5.523 4.477 10 10 10h27.84c-5.523 0-10-4.477-10-10z" fill="#9e5528"/></g><g><path d="m298.968 304.226h-159.254c-11.046 0-20-8.954-20-20v-171.706c0-22.091 17.909-40 40-40h119.253c22.091 0 40 17.909 40 40v171.706c.001 11.046-8.953 20-19.999 20z" fill="#ff8086"/></g><g><path d="m140.115 284.226v-171.706c0-22.091 17.909-40 40-40h-20.4c-22.091 0-40 17.909-40 40v171.706c0 11.046 8.954 20 20 20h20.4c-11.046 0-20-8.955-20-20z" fill="#f46c7a"/></g><g><path d="m227.64 504.5h-16.598c-5.523 0-10-4.477-10-10v-232.114c0-5.523 4.477-10 10-10h16.598c5.523 0 10 4.477 10 10v232.114c0 5.523-4.477 10-10 10z" fill="#deecf1"/></g><g><path d="m318.968 401.666v-34.266c0-1.438-.619-2.806-1.699-3.756l-12.163-10.689c-3.65-3.208-8.343-4.977-13.203-4.977h-145.123c-4.859 0-9.553 1.769-13.203 4.977l-12.163 10.689c-1.08.949-1.699 2.318-1.699 3.756v34.266c0 2.761 2.239 5 5 5h189.253c2.761 0 5-2.239 5-5z" fill="#ff8086"/></g><g><path d="m141.314 401.666v-34.266c0-1.438.619-2.807 1.699-3.756l12.163-10.689c3.65-3.208 8.343-4.977 13.203-4.977h-21.6c-4.859 0-9.553 1.769-13.203 4.977l-12.163 10.689c-1.08.949-1.699 2.318-1.699 3.756v34.266c0 2.761 2.239 5 5 5h21.6c-2.761 0-5-2.239-5-5z" fill="#f46c7a"/></g></g><path d="m494.5 213.863h-29.602v-9.853c0-9.649-7.851-17.5-17.5-17.5h-21.862c-9.649 0-17.5 7.851-17.5 17.5v9.853h-22.839l-16.905-18.033c-4.059-4.33-6.294-9.982-6.294-15.917v-12.403h64.469c9.649 0 17.5-7.851 17.5-17.5v-70.69c0-4.142-3.358-7.5-7.5-7.5s-7.5 3.358-7.5 7.5v40.791h-102.499v-7.59c0-26.191-21.309-47.5-47.5-47.5h-36.693v-47.521c0-1.378 1.122-2.5 2.5-2.5h181.692c1.378 0 2.5 1.122 2.5 2.5v27.26c0 4.142 3.358 7.5 7.5 7.5s7.5-3.358 7.5-7.5v-27.26c0-9.649-7.851-17.5-17.5-17.5h-181.692c-9.649 0-17.5 7.851-17.5 17.5v47.52h-67.561c-26.191 0-47.5 21.309-47.5 47.5v23.28c0 4.142 3.358 7.5 7.5 7.5s7.5-3.358 7.5-7.5v-23.28c0-17.92 14.58-32.5 32.5-32.5h119.253c17.92 0 32.5 14.58 32.5 32.5v171.706c0 6.893-5.607 12.5-12.5 12.5h-53.827v-34.34c0-9.649-7.851-17.5-17.5-17.5h-16.598c-9.649 0-17.5 7.851-17.5 17.5v34.34h-53.828c-6.893 0-12.5-5.607-12.5-12.5v-112.426c0-4.142-3.358-7.5-7.5-7.5s-7.5 3.358-7.5 7.5v42.063h-16.914v-52.352c0-5.238-4.262-9.5-9.5-9.5h-1.67v-24.401c0-13.068-10.632-23.7-23.7-23.7s-23.7 10.632-23.7 23.7v24.401h-1.67c-5.238 0-9.5 4.262-9.5 9.5v52.352h-8.06c-9.649 0-17.5 7.851-17.5 17.5v22.386c0 9.649 7.851 17.5 17.5 17.5h8.06v228.251c0 6.893 5.607 12.5 12.5 12.5h28.86c6.893 0 12.5-5.607 12.5-12.5v-106.6h32.794v8.766c0 6.893 5.607 12.5 12.5 12.5h68.828v5.318l-63.54 71.728c-3.305 3.731-4.087 8.873-2.042 13.419 2.046 4.545 6.414 7.369 11.398 7.369h24.74c3.612 0 7.046-1.562 9.42-4.284l20.023-22.957v9.74c0 9.649 7.851 17.5 17.5 17.5h16.598c9.649 0 17.5-7.851 17.5-17.5v-9.74l20.024 22.958c2.375 2.721 5.808 4.282 9.419 4.282h24.74c4.985 0 9.353-2.824 11.398-7.369 2.046-4.546 1.264-9.688-2.042-13.419l-63.54-71.728v-5.318h68.828c6.893 0 12.5-5.607 12.5-12.5v-8.765h106.114v106.6c0 6.893 5.607 12.5 12.5 12.5h28.86c6.893 0 12.5-5.607 12.5-12.5v-149.522c0-4.142-3.358-7.5-7.5-7.5s-7.5 3.358-7.5 7.5v147.022h-23.86v-225.751h23.86v42.729c0 4.142 3.358 7.5 7.5 7.5s7.5-3.358 7.5-7.5v-42.729h8.06c9.649 0 17.5-7.851 17.5-17.5v-22.386c0-9.649-7.851-17.5-17.5-17.5zm-68.964-12.353h21.862c1.378 0 2.5 1.122 2.5 2.5v9.853h-26.862v-9.853c0-1.378 1.122-2.5 2.5-2.5zm-68.188 4.579 7.288 7.774h-38.168v-46.353h20.53v12.404c0 9.76 3.675 19.056 10.35 26.175zm71.619-70.979v14.9c0 1.378-1.122 2.5-2.5 2.5h-99.999v-17.4zm-217.925 124.776h16.598c1.378 0 2.5 1.122 2.5 2.5v78.092h-21.598v-78.092c0-1.379 1.122-2.5 2.5-2.5zm-130.742-92.874v13.861h-39.74v-13.861zm-28.57-39.402c0-4.797 3.903-8.7 8.7-8.7s8.7 3.903 8.7 8.7v24.401h-17.4zm-11.17 68.263h39.74v17.99h-39.74zm-25.56 57.876v-22.386c0-1.378 1.122-2.5 2.5-2.5h94.714v27.386h-94.714c-1.378 0-2.5-1.122-2.5-2.5zm25.56 243.251v-225.751h23.86v225.751zm75.902-138.989c-2.7 2.373-4.248 5.795-4.248 9.389v10.5h-32.794v-106.651h32.794v12.977c0 15.164 12.336 27.5 27.5 27.5h53.828v28.751h-46.762c-6.685 0-13.132 2.431-18.154 6.844zm46.5 138.989h-18.048l48.628-54.895v19.834zm130.806 0h-18.048l-30.58-35.06v-19.835zm-63.628-2.5c0 1.378-1.122 2.5-2.5 2.5h-16.598c-1.378 0-2.5-1.122-2.5-2.5v-80.334h21.598zm81.328-95.334h-184.254v-30.635l11.313-9.942c2.283-2.006 5.213-3.111 8.252-3.111h145.123c3.039 0 5.969 1.105 8.251 3.111l11.313 9.942v30.635zm121.112-21.266h-106.112v-10.5c0-3.594-1.548-7.016-4.248-9.389l-12.163-10.689c-5.021-4.414-11.469-6.844-18.154-6.844h-46.763v-28.751h53.828c15.164 0 27.5-12.336 27.5-27.5v-12.977h106.112zm64.42-124.151c0 1.378-1.122 2.5-2.5 2.5h-168.032v-27.386h168.032c1.378 0 2.5 1.122 2.5 2.5z"/></g></svg>